<?xml version="1.0" encoding="UTF-8" standalone="no"?>
<svg
   xmlns:dc="http://purl.org/dc/elements/1.1/"
   xmlns:cc="http://creativecommons.org/ns#"
   xmlns:rdf="http://www.w3.org/1999/02/22-rdf-syntax-ns#"
   xmlns:svg="http://www.w3.org/2000/svg"
   xmlns="http://www.w3.org/2000/svg"
   xmlns:sodipodi="http://sodipodi.sourceforge.net/DTD/sodipodi-0.dtd"
   xmlns:inkscape="http://www.inkscape.org/namespaces/inkscape"
   inkscape:version="1.0 (4035a4fb49, 2020-05-01)"
   sodipodi:docname="graph3_merged_250.svg"
   viewBox="0 0 960 672"
   height="672"
   width="960"
   xml:space="preserve"
   id="svg2346"
   version="1.1"><metadata
     id="metadata2352"><rdf:RDF><cc:Work
         rdf:about=""><dc:format>image/svg+xml</dc:format><dc:type
           rdf:resource="http://purl.org/dc/dcmitype/StillImage" /><dc:title></dc:title></cc:Work></rdf:RDF></metadata><defs
     id="defs2350"><clipPath
       id="clipPath2366"
       clipPathUnits="userSpaceOnUse"><path
         id="path2364"
         d="m 76.34,52.76 h 376 v 436.12 h -376 z" /></clipPath><clipPath
       id="clipPath2376"
       clipPathUnits="userSpaceOnUse"><path
         id="path2374"
         d="m 76.34,52.76 h 376 v 436.12 h -376 z" /></clipPath><clipPath
       id="clipPath2386"
       clipPathUnits="userSpaceOnUse"><path
         id="path2384"
         d="m 76.34,52.76 h 376 v 436.12 h -376 z" /></clipPath><clipPath
       id="clipPath2538"
       clipPathUnits="userSpaceOnUse"><path
         id="path2536"
         d="m 76.34,52.76 h 376 v 436.12 h -376 z" /></clipPath><clipPath
       id="clipPath2548"
       clipPathUnits="userSpaceOnUse"><path
         id="path2546"
         d="m 76.34,52.76 h 376 v 436.12 h -376 z" /></clipPath><clipPath
       id="clipPath2558"
       clipPathUnits="userSpaceOnUse"><path
         id="path2556"
         d="m 76.34,52.76 h 376 v 436.12 h -376 z" /></clipPath><clipPath
       id="clipPath2568"
       clipPathUnits="userSpaceOnUse"><path
         id="path2566"
         d="m 76.34,52.76 h 376 v 436.12 h -376 z" /></clipPath><clipPath
       id="clipPath2578"
       clipPathUnits="userSpaceOnUse"><path
         id="path2576"
         d="m 76.34,52.76 h 376 v 436.12 h -376 z" /></clipPath><clipPath
       id="clipPath2588"
       clipPathUnits="userSpaceOnUse"><path
         id="path2586"
         d="m 76.34,52.76 h 376 v 436.12 h -376 z" /></clipPath><clipPath
       id="clipPath2598"
       clipPathUnits="userSpaceOnUse"><path
         id="path2596"
         d="m 76.34,52.76 h 376 v 436.12 h -376 z" /></clipPath><clipPath
       id="clipPath2608"
       clipPathUnits="userSpaceOnUse"><path
         id="path2606"
         d="m 76.34,52.76 h 376 v 436.12 h -376 z" /></clipPath><clipPath
       id="clipPath2618"
       clipPathUnits="userSpaceOnUse"><path
         id="path2616"
         d="m 76.34,52.76 h 376 v 436.12 h -376 z" /></clipPath><clipPath
       id="clipPath2628"
       clipPathUnits="userSpaceOnUse"><path
         id="path2626"
         d="m 76.34,52.76 h 376 v 436.12 h -376 z" /></clipPath><clipPath
       id="clipPath2638"
       clipPathUnits="userSpaceOnUse"><path
         id="path2636"
         d="m 76.34,52.76 h 376 v 436.12 h -376 z" /></clipPath><clipPath
       id="clipPath2648"
       clipPathUnits="userSpaceOnUse"><path
         id="path2646"
         d="m 76.34,52.76 h 376 v 436.12 h -376 z" /></clipPath><clipPath
       id="clipPath2658"
       clipPathUnits="userSpaceOnUse"><path
         id="path2656"
         d="m 76.34,52.76 h 376 v 436.12 h -376 z" /></clipPath><clipPath
       id="clipPath2668"
       clipPathUnits="userSpaceOnUse"><path
         id="path2666"
         d="m 76.34,52.76 h 376 v 436.12 h -376 z" /></clipPath></defs><sodipodi:namedview
     inkscape:current-layer="g2354"
     inkscape:window-maximized="1"
     inkscape:window-y="-8"
     inkscape:window-x="-8"
     inkscape:cy="336"
     inkscape:cx="480"
     inkscape:zoom="1.165625"
     showgrid="false"
     id="namedview2348"
     inkscape:window-height="1002"
     inkscape:window-width="1920"
     inkscape:pageshadow="2"
     inkscape:pageopacity="0"
     guidetolerance="10"
     gridtolerance="10"
     objecttolerance="10"
     borderopacity="1"
     bordercolor="#666666"
     pagecolor="#ffffff" /><g
     transform="matrix(1.3333333,0,0,-1.3333333,0,672)"
     inkscape:label="graph3_merged_250"
     inkscape:groupmode="layer"
     id="g2354"><path
       id="path2356"
       style="fill:#ffffff;fill-opacity:1;fill-rule:nonzero;stroke:none"
       d="M 0,0 H 720 V 504 H 0 Z" /><path
       id="path2358"
       style="fill:#ffffff;fill-opacity:1;fill-rule:nonzero;stroke:none"
       d="m 76.34,52.76 h 376 v 436.12 h -376 z" /><g
       id="g2360"><g
         clip-path="url(#clipPath2366)"
         id="g2362"><path
           id="path2368"
           style="fill:#1f77b4;fill-opacity:0.2;fill-rule:nonzero;stroke:none"
           d="M 66.94,191.87503 V 56.35924 h 9.4 l 9.4,80.87816 9.4,3.42659 9.4,50.38584 9.4,6.55023 9.4,6.96702 9.4,5.99667 9.4,7.62935 9.4,6.48878 9.4,-2.7577 9.4,14.44709 9.4,1.73236 9.4,9.85969 9.4,-2.30831 9.4,7.14412 9.4,6.84621 9.4,5.82535 9.4,2.52607 9.4,6.25706 9.4,0.11223 9.4,9.40138 9.4,-10.39125 9.4,21.6468 9.4,-5.77206 9.4,8.0268 9.4,1.39287 9.4,-2.98135 9.4,6.41402 9.4,4.66154 9.4,2.59142 9.4,-0.80181 9.4,-4.33057 9.4,6.06433 9.4,2.84792 9.4,3.34102 9.4,-2.44256 9.4,6.44351 9.4,3.55275 9.4,-0.80398 9.4,41.04746 v 0 0 l -9.4,46.57776 -9.4,-2.41883 -9.4,1.30875 -9.4,1.81564 -9.4,-0.22405 -9.4,0.7582 -9.4,0.30209 -9.4,2.17415 -9.4,-2.95536 -9.4,-2.2445 -9.4,-1.45613 -9.4,3.414 -9.4,-1.49795 -9.4,0.11462 -9.4,-3.33905 -9.4,3.27004 -9.4,-5.41723 -9.4,7.71229 -9.4,-4.77414 -9.4,-0.17764 -9.4,-0.83832 -9.4,-0.95748 -9.4,-2.43236 -9.4,2.68901 -9.4,-3.71143 -9.4,-1.61492 -9.4,-3.522 -9.4,-0.92464 -9.4,-1.3036 -9.4,-1.29861 -9.4,0.0928 -9.4,-1.38453 -9.4,-2.61455 -9.4,0.33094 -9.4,-1.01858 -9.4,-0.93703 -9.4,-112.02543 -9.4,-0.48445 -9.4,-83.38678 h -9.4 z" /></g></g><g
       id="g2370"><g
         clip-path="url(#clipPath2376)"
         id="g2372"><path
           id="path2378"
           style="fill:#ff7f0e;fill-opacity:0.2;fill-rule:nonzero;stroke:none"
           d="m 66.94,417.8619 v -226.499 h 9.4 l 9.4,4.95158 9.4,2.65146 9.4,2.22589 9.4,1.46691 9.4,1.99747 9.4,1.90527 9.4,2.2889 9.4,0.91796 9.4,1.47577 9.4,0.95619 9.4,1.61121 9.4,1.47987 9.4,-0.0885 9.4,-0.95529 9.4,5.44132 9.4,-0.17237 9.4,1.55222 9.4,1.35287 9.4,-4.49723 9.4,13.30387 9.4,-5.05103 9.4,2.11432 9.4,-4.77286 9.4,11.15 9.4,-8.7209 9.4,7.83442 9.4,-6.08858 9.4,6.11951 9.4,-2.53074 9.4,-1.66666 9.4,4.61518 9.4,-4.22787 9.4,1.7966 v 253.7081 0 l -9.4,5.41364 -9.4,-2.94528 -9.4,-2.96896 -9.4,1.36976 -9.4,3.19213 -9.4,-4.3354 -9.4,0.26583 -9.4,-2.51685 -9.4,-5.19561 -9.4,5.26483 -9.4,-1.22085 -9.4,-0.26104 -9.4,-8.84959 -9.4,-16.1232 -9.4,-3.21901 -9.4,3.64986 -9.4,-4.53932 -9.4,1.05822 -9.4,-6.22232 -9.4,-7.50877 -9.4,-3.24371 -9.4,-4.08692 -9.4,-1.78625 -9.4,-1.05371 -9.4,-0.66097 -9.4,-0.93542 -9.4,-1.17267 -9.4,-0.52089 -9.4,-2.41549 -9.4,-2.14039 -9.4,-2.13122 -9.4,-1.78576 -9.4,-0.0205 h -9.4 z" /></g></g><g
       id="g2380"><g
         clip-path="url(#clipPath2386)"
         id="g2382"><path
           id="path2388"
           style="fill:#2ca02c;fill-opacity:0.2;fill-rule:nonzero;stroke:none"
           d="M 66.94,462.78136 V 239.80804 h 9.4 l 9.4,6.38467 9.4,0.0482 9.4,-0.5397 9.4,0.43204 9.4,0.18457 9.4,0.0291 9.4,0.46799 9.4,0.60694 9.4,-0.41325 9.4,4.89797 9.4,8.92802 9.4,-2.62777 9.4,-1.78985 9.4,3.71951 9.4,1.30472 9.4,-0.36357 9.4,-0.18056 9.4,0.78953 v 221.13404 0 l -9.4,-1.19177 -9.4,0.0984 -9.4,0.8684 -9.4,-1.42635 -9.4,-2.19667 -9.4,0.52732 -9.4,0.12147 -9.4,-13.39261 -9.4,-3.14372 -9.4,-5.16198 -9.4,0.20488 -9.4,-1.94025 -9.4,-0.0162 -9.4,-1.27059 -9.4,-1.84587 -9.4,-1.80168 -9.4,-0.56282 -9.4,12.09069 h -9.4 z" /></g></g><g
       id="g2390"><path
         id="path2392"
         style="fill:#000000;fill-opacity:1;fill-rule:nonzero;stroke:#000000;stroke-width:0.8;stroke-linecap:butt;stroke-linejoin:round;stroke-miterlimit:10;stroke-dasharray:none;stroke-opacity:1"
         d="m 113.94,52.76 v -3.5" /><text
         id="text2396"
         style="font-variant:normal;font-weight:normal;font-size:12px;font-family:DejaVuSans;-inkscape-font-specification:DejaVuSans;writing-mode:lr-tb;fill:#000000;fill-opacity:1;fill-rule:nonzero;stroke:none"
         transform="matrix(1,0,0,-1,110.11969,36.635)"><tspan
           id="tspan2394"
           y="0"
           x="0">5</tspan></text><path
         id="path2398"
         style="fill:#000000;fill-opacity:1;fill-rule:nonzero;stroke:#000000;stroke-width:0.8;stroke-linecap:butt;stroke-linejoin:round;stroke-miterlimit:10;stroke-dasharray:none;stroke-opacity:1"
         d="m 160.94,52.76 v -3.5" /><text
         id="text2402"
         style="font-variant:normal;font-weight:normal;font-size:12px;font-family:DejaVuSans;-inkscape-font-specification:DejaVuSans;writing-mode:lr-tb;fill:#000000;fill-opacity:1;fill-rule:nonzero;stroke:none"
         transform="matrix(1,0,0,-1,153.29937,36.635)"><tspan
           id="tspan2400"
           sodipodi:role="line"
           y="0"
           x="0 7.632">10</tspan></text><path
         id="path2404"
         style="fill:#000000;fill-opacity:1;fill-rule:nonzero;stroke:#000000;stroke-width:0.8;stroke-linecap:butt;stroke-linejoin:round;stroke-miterlimit:10;stroke-dasharray:none;stroke-opacity:1"
         d="m 207.94,52.76 v -3.5" /><text
         id="text2408"
         style="font-variant:normal;font-weight:normal;font-size:12px;font-family:DejaVuSans;-inkscape-font-specification:DejaVuSans;writing-mode:lr-tb;fill:#000000;fill-opacity:1;fill-rule:nonzero;stroke:none"
         transform="matrix(1,0,0,-1,200.29937,36.635)"><tspan
           id="tspan2406"
           sodipodi:role="line"
           y="0"
           x="0 7.632">15</tspan></text><path
         id="path2410"
         style="fill:#000000;fill-opacity:1;fill-rule:nonzero;stroke:#000000;stroke-width:0.8;stroke-linecap:butt;stroke-linejoin:round;stroke-miterlimit:10;stroke-dasharray:none;stroke-opacity:1"
         d="m 254.94,52.76 v -3.5" /><text
         id="text2414"
         style="font-variant:normal;font-weight:normal;font-size:12px;font-family:DejaVuSans;-inkscape-font-specification:DejaVuSans;writing-mode:lr-tb;fill:#000000;fill-opacity:1;fill-rule:nonzero;stroke:none"
         transform="matrix(1,0,0,-1,247.29937,36.635)"><tspan
           id="tspan2412"
           sodipodi:role="line"
           y="0"
           x="0 7.632">20</tspan></text><path
         id="path2416"
         style="fill:#000000;fill-opacity:1;fill-rule:nonzero;stroke:#000000;stroke-width:0.8;stroke-linecap:butt;stroke-linejoin:round;stroke-miterlimit:10;stroke-dasharray:none;stroke-opacity:1"
         d="m 301.94,52.76 v -3.5" /><text
         id="text2420"
         style="font-variant:normal;font-weight:normal;font-size:12px;font-family:DejaVuSans;-inkscape-font-specification:DejaVuSans;writing-mode:lr-tb;fill:#000000;fill-opacity:1;fill-rule:nonzero;stroke:none"
         transform="matrix(1,0,0,-1,294.29937,36.635)"><tspan
           id="tspan2418"
           sodipodi:role="line"
           y="0"
           x="0 7.632">25</tspan></text><path
         id="path2422"
         style="fill:#000000;fill-opacity:1;fill-rule:nonzero;stroke:#000000;stroke-width:0.8;stroke-linecap:butt;stroke-linejoin:round;stroke-miterlimit:10;stroke-dasharray:none;stroke-opacity:1"
         d="m 348.94,52.76 v -3.5" /><text
         id="text2426"
         style="font-variant:normal;font-weight:normal;font-size:12px;font-family:DejaVuSans;-inkscape-font-specification:DejaVuSans;writing-mode:lr-tb;fill:#000000;fill-opacity:1;fill-rule:nonzero;stroke:none"
         transform="matrix(1,0,0,-1,341.29937,36.635)"><tspan
           id="tspan2424"
           sodipodi:role="line"
           y="0"
           x="0 7.632">30</tspan></text><path
         id="path2428"
         style="fill:#000000;fill-opacity:1;fill-rule:nonzero;stroke:#000000;stroke-width:0.8;stroke-linecap:butt;stroke-linejoin:round;stroke-miterlimit:10;stroke-dasharray:none;stroke-opacity:1"
         d="m 395.94,52.76 v -3.5" /><text
         id="text2432"
         style="font-variant:normal;font-weight:normal;font-size:12px;font-family:DejaVuSans;-inkscape-font-specification:DejaVuSans;writing-mode:lr-tb;fill:#000000;fill-opacity:1;fill-rule:nonzero;stroke:none"
         transform="matrix(1,0,0,-1,388.29937,36.635)"><tspan
           id="tspan2430"
           sodipodi:role="line"
           y="0"
           x="0 7.632">35</tspan></text><path
         id="path2434"
         style="fill:#000000;fill-opacity:1;fill-rule:nonzero;stroke:#000000;stroke-width:0.8;stroke-linecap:butt;stroke-linejoin:round;stroke-miterlimit:10;stroke-dasharray:none;stroke-opacity:1"
         d="m 442.94,52.76 v -3.5" /><text
         id="text2438"
         style="font-variant:normal;font-weight:normal;font-size:12px;font-family:DejaVuSans;-inkscape-font-specification:DejaVuSans;writing-mode:lr-tb;fill:#000000;fill-opacity:1;fill-rule:nonzero;stroke:none"
         transform="matrix(1,0,0,-1,435.29937,36.635)"><tspan
           id="tspan2436"
           sodipodi:role="line"
           y="0"
           x="0 7.632">40</tspan></text><text
         id="text2442"
         style="font-variant:normal;font-weight:normal;font-size:20px;font-family:DejaVuSans;-inkscape-font-specification:DejaVuSans;writing-mode:lr-tb;fill:#000000;fill-opacity:1;fill-rule:nonzero;stroke:none"
         transform="matrix(1,0,0,-1,107.215,14.931875)"><tspan
           id="tspan2440"
           sodipodi:role="line"
           y="0"
           x="0 13.68 25.52 37.82 46.040001 58.299999 71 83.300003 89.660004 102.34 115.02 134.5 147.2 159.5 167.72 174.08 186.32001 193.36 199.72 212.02 223.86 236.12 241.67999 254.36 266.62 274.45999 280.01999 292.26001 304.94">Average number of evaluations</tspan></text><path
         id="path2444"
         style="fill:#000000;fill-opacity:1;fill-rule:nonzero;stroke:#000000;stroke-width:0.8;stroke-linecap:butt;stroke-linejoin:round;stroke-miterlimit:10;stroke-dasharray:none;stroke-opacity:1"
         d="m 76.34,52.76 h -3.5" /><text
         id="text2448"
         style="font-variant:normal;font-weight:normal;font-size:12px;font-family:DejaVuSans;-inkscape-font-specification:DejaVuSans;writing-mode:lr-tb;fill:#000000;fill-opacity:1;fill-rule:nonzero;stroke:none"
         transform="matrix(1,0,0,-1,50.24625,48.1975)"><tspan
           id="tspan2446"
           sodipodi:role="line"
           y="0"
           x="0 7.632 11.448">0.0</tspan></text><path
         id="path2450"
         style="fill:#000000;fill-opacity:1;fill-rule:nonzero;stroke:#000000;stroke-width:0.8;stroke-linecap:butt;stroke-linejoin:round;stroke-miterlimit:10;stroke-dasharray:none;stroke-opacity:1"
         d="m 76.34,115.06286 h -3.5" /><text
         id="text2454"
         style="font-variant:normal;font-weight:normal;font-size:12px;font-family:DejaVuSans;-inkscape-font-specification:DejaVuSans;writing-mode:lr-tb;fill:#000000;fill-opacity:1;fill-rule:nonzero;stroke:none"
         transform="matrix(1,0,0,-1,42.605625,110.50036)"><tspan
           id="tspan2452"
           sodipodi:role="line"
           y="0"
           x="0 7.632 15.264 19.08">20.0</tspan></text><path
         id="path2456"
         style="fill:#000000;fill-opacity:1;fill-rule:nonzero;stroke:#000000;stroke-width:0.8;stroke-linecap:butt;stroke-linejoin:round;stroke-miterlimit:10;stroke-dasharray:none;stroke-opacity:1"
         d="m 76.34,177.36571 h -3.5" /><text
         id="text2460"
         style="font-variant:normal;font-weight:normal;font-size:12px;font-family:DejaVuSans;-inkscape-font-specification:DejaVuSans;writing-mode:lr-tb;fill:#000000;fill-opacity:1;fill-rule:nonzero;stroke:none"
         transform="matrix(1,0,0,-1,42.605625,172.80321)"><tspan
           id="tspan2458"
           sodipodi:role="line"
           y="0"
           x="0 7.632 15.264 19.08">40.0</tspan></text><path
         id="path2462"
         style="fill:#000000;fill-opacity:1;fill-rule:nonzero;stroke:#000000;stroke-width:0.8;stroke-linecap:butt;stroke-linejoin:round;stroke-miterlimit:10;stroke-dasharray:none;stroke-opacity:1"
         d="m 76.34,239.66857 h -3.5" /><text
         id="text2466"
         style="font-variant:normal;font-weight:normal;font-size:12px;font-family:DejaVuSans;-inkscape-font-specification:DejaVuSans;writing-mode:lr-tb;fill:#000000;fill-opacity:1;fill-rule:nonzero;stroke:none"
         transform="matrix(1,0,0,-1,42.605625,235.10607)"><tspan
           id="tspan2464"
           sodipodi:role="line"
           y="0"
           x="0 7.632 15.264 19.08">60.0</tspan></text><path
         id="path2468"
         style="fill:#000000;fill-opacity:1;fill-rule:nonzero;stroke:#000000;stroke-width:0.8;stroke-linecap:butt;stroke-linejoin:round;stroke-miterlimit:10;stroke-dasharray:none;stroke-opacity:1"
         d="m 76.34,364.27429 h -3.5" /><text
         id="text2472"
         style="font-variant:normal;font-weight:normal;font-size:12px;font-family:DejaVuSans;-inkscape-font-specification:DejaVuSans;writing-mode:lr-tb;fill:#000000;fill-opacity:1;fill-rule:nonzero;stroke:none"
         transform="matrix(1,0,0,-1,34.965,359.71179)"><tspan
           id="tspan2470"
           sodipodi:role="line"
           y="0"
           x="0 7.632 15.264 22.896 26.712">100.0</tspan></text><path
         id="path2474"
         style="fill:#000000;fill-opacity:1;fill-rule:nonzero;stroke:#000000;stroke-width:0.8;stroke-linecap:butt;stroke-linejoin:round;stroke-miterlimit:10;stroke-dasharray:none;stroke-opacity:1"
         d="m 76.34,426.57714 h -3.5" /><text
         id="text2478"
         style="font-variant:normal;font-weight:normal;font-size:12px;font-family:DejaVuSans;-inkscape-font-specification:DejaVuSans;writing-mode:lr-tb;fill:#000000;fill-opacity:1;fill-rule:nonzero;stroke:none"
         transform="matrix(1,0,0,-1,34.965,422.01464)"><tspan
           id="tspan2476"
           sodipodi:role="line"
           y="0"
           x="0 7.632 15.264 22.896 26.712">120.0</tspan></text><path
         id="path2480"
         style="fill:#000000;fill-opacity:1;fill-rule:nonzero;stroke:#000000;stroke-width:0.8;stroke-linecap:butt;stroke-linejoin:round;stroke-miterlimit:10;stroke-dasharray:none;stroke-opacity:1"
         d="m 76.34,488.88 h -3.5" /><text
         id="text2484"
         style="font-variant:normal;font-weight:normal;font-size:12px;font-family:DejaVuSans;-inkscape-font-specification:DejaVuSans;writing-mode:lr-tb;fill:#000000;fill-opacity:1;fill-rule:nonzero;stroke:none"
         transform="matrix(1,0,0,-1,34.965,484.3175)"><tspan
           id="tspan2482"
           sodipodi:role="line"
           y="0"
           x="0 7.632 15.264 22.896 26.712">140.0</tspan></text><path
         id="path2486"
         style="fill:#000000;fill-opacity:1;fill-rule:nonzero;stroke:#000000;stroke-width:0.8;stroke-linecap:butt;stroke-linejoin:round;stroke-miterlimit:10;stroke-dasharray:none;stroke-opacity:1"
         d="m 76.34,124.11713 h -3.5" /><text
         id="text2490"
         style="font-variant:normal;font-weight:normal;font-size:12px;font-family:DejaVuSans;-inkscape-font-specification:DejaVuSans;writing-mode:lr-tb;fill:#000000;fill-opacity:1;fill-rule:nonzero;stroke:none"
         transform="matrix(1,0,0,-1,42.605625,119.55463)"><tspan
           id="tspan2488"
           sodipodi:role="line"
           y="0"
           x="0 7.632 15.264 19.08">22.9</tspan></text><path
         id="path2492"
         style="fill:#000000;fill-opacity:1;fill-rule:nonzero;stroke:#000000;stroke-width:0.8;stroke-linecap:butt;stroke-linejoin:round;stroke-miterlimit:10;stroke-dasharray:none;stroke-opacity:1"
         d="m 76.34,351.2947 h -3.5" /><text
         id="text2496"
         style="font-variant:normal;font-weight:normal;font-size:12px;font-family:DejaVuSans;-inkscape-font-specification:DejaVuSans;writing-mode:lr-tb;fill:#000000;fill-opacity:1;fill-rule:nonzero;stroke:none"
         transform="matrix(1,0,0,-1,42.605625,346.7322)"><tspan
           id="tspan2494"
           sodipodi:role="line"
           y="0"
           x="0 7.632 15.264 19.08">95.8</tspan></text><path
         id="path2498"
         style="fill:#000000;fill-opacity:1;fill-rule:nonzero;stroke:#000000;stroke-width:0.8;stroke-linecap:butt;stroke-linejoin:round;stroke-miterlimit:10;stroke-dasharray:none;stroke-opacity:1"
         d="m 76.34,364.27429 h -3.5" /><text
         id="text2502"
         style="font-variant:normal;font-weight:normal;font-size:12px;font-family:DejaVuSans;-inkscape-font-specification:DejaVuSans;writing-mode:lr-tb;fill:#000000;fill-opacity:1;fill-rule:nonzero;stroke:none"
         transform="matrix(1,0,0,-1,34.965,359.71179)"><tspan
           id="tspan2500"
           sodipodi:role="line"
           y="0"
           x="0 7.632 15.264 22.896 26.712">100.0</tspan></text><path
         id="path2504"
         style="fill:#000000;fill-opacity:1;fill-rule:nonzero;stroke:#000000;stroke-width:0.8;stroke-linecap:butt;stroke-linejoin:round;stroke-miterlimit:10;stroke-dasharray:none;stroke-opacity:1"
         d="m 76.34,206.2496 h -3.5" /><text
         id="text2508"
         style="font-variant:normal;font-weight:normal;font-size:12px;font-family:DejaVuSans;-inkscape-font-specification:DejaVuSans;writing-mode:lr-tb;fill:#000000;fill-opacity:1;fill-rule:nonzero;stroke:none"
         transform="matrix(1,0,0,-1,42.605625,201.6871)"><tspan
           id="tspan2506"
           sodipodi:role="line"
           y="0"
           x="0 7.632 15.264 19.08">49.3</tspan></text><path
         id="path2510"
         style="fill:#000000;fill-opacity:1;fill-rule:nonzero;stroke:#000000;stroke-width:0.8;stroke-linecap:butt;stroke-linejoin:round;stroke-miterlimit:10;stroke-dasharray:none;stroke-opacity:1"
         d="m 76.34,372.2537 h -3.5" /><text
         id="text2514"
         style="font-variant:normal;font-weight:normal;font-size:12px;font-family:DejaVuSans;-inkscape-font-specification:DejaVuSans;writing-mode:lr-tb;fill:#000000;fill-opacity:1;fill-rule:nonzero;stroke:none"
         transform="matrix(1,0,0,-1,34.965,367.6912)"><tspan
           id="tspan2512"
           sodipodi:role="line"
           y="0"
           x="0 7.632 15.264 22.896 26.712">102.6</tspan></text><path
         id="path2516"
         style="fill:#000000;fill-opacity:1;fill-rule:nonzero;stroke:#000000;stroke-width:0.8;stroke-linecap:butt;stroke-linejoin:round;stroke-miterlimit:10;stroke-dasharray:none;stroke-opacity:1"
         d="m 76.34,358.65368 h -3.5" /><text
         id="text2520"
         style="font-variant:normal;font-weight:normal;font-size:12px;font-family:DejaVuSans;-inkscape-font-specification:DejaVuSans;writing-mode:lr-tb;fill:#000000;fill-opacity:1;fill-rule:nonzero;stroke:none"
         transform="matrix(1,0,0,-1,42.605625,354.09118)"><tspan
           id="tspan2518"
           sodipodi:role="line"
           y="0"
           x="0 7.632 15.264 19.08">98.2</tspan></text><path
         id="path2522"
         style="fill:#000000;fill-opacity:1;fill-rule:nonzero;stroke:#000000;stroke-width:0.8;stroke-linecap:butt;stroke-linejoin:round;stroke-miterlimit:10;stroke-dasharray:none;stroke-opacity:1"
         d="m 76.34,304.6124 h -3.5" /><text
         id="text2526"
         style="font-variant:normal;font-weight:normal;font-size:12px;font-family:DejaVuSans;-inkscape-font-specification:DejaVuSans;writing-mode:lr-tb;fill:#000000;fill-opacity:1;fill-rule:nonzero;stroke:none"
         transform="matrix(1,0,0,-1,42.605625,300.0499)"><tspan
           id="tspan2524"
           sodipodi:role="line"
           y="0"
           x="0 7.632 15.264 19.08">80.8</tspan></text><text
         id="text2530"
         style="font-variant:normal;font-weight:normal;font-size:20px;font-family:DejaVuSans;-inkscape-font-specification:DejaVuSans;writing-mode:lr-tb;fill:#000000;fill-opacity:1;fill-rule:nonzero;stroke:none"
         transform="matrix(0,1,1,0,26.80875,156.14031)"><tspan
           id="tspan2528"
           sodipodi:role="line"
           y="0"
           x="0 19 25.360001 37.599998 44.639999 51 63.240002 75.940002 83.779999 89.339996 108.82 121.08 126.64 133 145.3 152.34 159.38 164.94 175.94 181.5 193.8 206.48 217.48">% of optimal efficiency</tspan></text></g><g
       id="g2532"><g
         clip-path="url(#clipPath2538)"
         id="g2534"><path
           id="path2540"
           style="fill:none;stroke:#1f77b4;stroke-width:1.5;stroke-linecap:butt;stroke-linejoin:round;stroke-miterlimit:10;stroke-dasharray:1.5, 2.475;stroke-dashoffset:0;stroke-opacity:1"
           d="m 76.34,124.11713 h 376" /></g></g><g
       id="g2542"><g
         clip-path="url(#clipPath2548)"
         id="g2544"><path
           id="path2550"
           style="fill:none;stroke:#ffffff;stroke-width:1.5;stroke-linecap:butt;stroke-linejoin:round;stroke-miterlimit:10;stroke-dasharray:5.55, 2.4;stroke-dashoffset:0;stroke-opacity:1"
           d="m 76.34,504.45571 h 376" /></g></g><g
       id="g2552"><g
         clip-path="url(#clipPath2558)"
         id="g2554"><path
           id="path2560"
           style="fill:none;stroke:#1f77b4;stroke-width:1.5;stroke-linecap:square;stroke-linejoin:round;stroke-miterlimit:10;stroke-dasharray:none;stroke-opacity:0.8"
           d="m 66.94,124.11713 h 9.4 l 9.4,82.13247 9.4,1.95553 9.4,81.20563 9.4,3.74363 9.4,3.9928 9.4,2.83286 9.4,5.12195 9.4,3.93666 9.4,-1.42527 9.4,7.87285 9.4,1.51798 9.4,5.39217 9.4,0.60684 9.4,4.37952 9.4,5.27882 9.4,1.56817 9.4,2.47921 9.4,3.60728 9.4,0.47527 9.4,4.78951 9.4,-2.80856 9.4,6.96726 9.4,-0.17742 9.4,2.37839 9.4,2.36595 9.4,-1.54798 9.4,3.95599 9.4,0.62377 9.4,2.02377 9.4,0.72134 9.4,-0.6876 9.4,1.94509 9.4,1.27292 9.4,1.2914 9.4,-1.10925 9.4,2.31394 9.4,1.122 9.4,0.80742 9.4,-2.76515" /></g></g><g
       id="g2562"><g
         clip-path="url(#clipPath2568)"
         id="g2564"><path
           id="path2570"
           style="fill:none;stroke:#ff7f0e;stroke-width:1.5;stroke-linecap:square;stroke-linejoin:round;stroke-miterlimit:10;stroke-dasharray:none;stroke-opacity:0.8"
           d="m 66.94,304.6124 h 9.4 l 9.4,2.48604 9.4,2.21861 9.4,2.17856 9.4,1.80364 9.4,2.20649 9.4,1.21308 9.4,1.73078 9.4,0.92669 9.4,1.06837 9.4,1.00495 9.4,1.69873 9.4,2.78339 9.4,1.57759 9.4,3.27675 9.4,5.83181 9.4,-0.61529 9.4,3.04577 9.4,-1.14849 9.4,-0.63912 9.4,14.71354 9.4,1.89928 9.4,1.18768 9.4,-1.77601 9.4,2.94259 9.4,-1.76265 9.4,5.17564 9.4,-3.17721 9.4,5.22746 9.4,-2.86143 9.4,-1.51822 9.4,3.79207 9.4,-0.64129 9.4,-1.80852" /></g></g><g
       id="g2572"><g
         clip-path="url(#clipPath2578)"
         id="g2574"><path
           id="path2580"
           style="fill:none;stroke:#2ca02c;stroke-width:1.5;stroke-linecap:square;stroke-linejoin:round;stroke-miterlimit:10;stroke-dasharray:none;stroke-opacity:0.8"
           d="m 66.94,351.2947 h 9.4 l 9.4,-2.85301 9.4,0.30553 9.4,0.63099 9.4,1.13896 9.4,0.72757 9.4,0.0227 9.4,1.20412 9.4,0.20103 9.4,2.37437 9.4,4.02084 9.4,11.16032 9.4,-1.37462 9.4,-1.15859 9.4,2.9581 9.4,1.36553 9.4,-0.61599 9.4,-0.13947 9.4,0.99065" /></g></g><g
       id="g2582"><g
         clip-path="url(#clipPath2588)"
         id="g2584"><path
           id="path2590"
           style="fill:none;stroke:#ffffff;stroke-width:1.5;stroke-linecap:butt;stroke-linejoin:round;stroke-miterlimit:10;stroke-dasharray:5.55, 2.4;stroke-dashoffset:0;stroke-opacity:1"
           d="m 76.34,504.45571 h 376" /></g></g><g
       id="g2592"><g
         clip-path="url(#clipPath2598)"
         id="g2594"><path
           id="path2600"
           style="fill:none;stroke:#1f77b4;stroke-width:1.5;stroke-linecap:butt;stroke-linejoin:round;stroke-miterlimit:10;stroke-dasharray:5.55, 2.4;stroke-dashoffset:0;stroke-opacity:1"
           d="m 76.34,206.2496 h 376" /></g></g><g
       id="g2602"><g
         clip-path="url(#clipPath2608)"
         id="g2604"><path
           id="path2610"
           style="fill:none;stroke:#ff7f0e;stroke-width:1.5;stroke-linecap:butt;stroke-linejoin:round;stroke-miterlimit:10;stroke-dasharray:5.55, 2.4;stroke-dashoffset:0;stroke-opacity:1"
           d="m 76.34,304.6124 h 376" /></g></g><g
       id="g2612"><g
         clip-path="url(#clipPath2618)"
         id="g2614"><path
           id="path2620"
           style="fill:none;stroke:#2ca02c;stroke-width:1.5;stroke-linecap:butt;stroke-linejoin:round;stroke-miterlimit:10;stroke-dasharray:5.55, 2.4;stroke-dashoffset:0;stroke-opacity:1"
           d="m 76.34,351.2947 h 376" /></g></g><g
       id="g2622"><g
         clip-path="url(#clipPath2628)"
         id="g2624"><path
           id="path2630"
           style="fill:none;stroke:#ffffff;stroke-width:1.5;stroke-linecap:butt;stroke-linejoin:round;stroke-miterlimit:10;stroke-dasharray:5.55, 2.4;stroke-dashoffset:0;stroke-opacity:1"
           d="m 76.34,504.45571 h 376" /></g></g><g
       id="g2632"><g
         clip-path="url(#clipPath2638)"
         id="g2634"><path
           id="path2640"
           style="fill:none;stroke:#1f77b4;stroke-width:1.5;stroke-linecap:butt;stroke-linejoin:round;stroke-miterlimit:10;stroke-dasharray:9.6, 2.4, 1.5, 2.4;stroke-dashoffset:0;stroke-opacity:1"
           d="m 76.34,364.27429 h 376" /></g></g><g
       id="g2642"><g
         clip-path="url(#clipPath2648)"
         id="g2644"><path
           id="path2650"
           style="fill:none;stroke:#ff7f0e;stroke-width:1.5;stroke-linecap:butt;stroke-linejoin:round;stroke-miterlimit:10;stroke-dasharray:9.6, 2.4, 1.5, 2.4;stroke-dashoffset:0;stroke-opacity:1"
           d="m 76.34,358.65368 h 376" /></g></g><g
       id="g2652"><g
         clip-path="url(#clipPath2658)"
         id="g2654"><path
           id="path2660"
           style="fill:none;stroke:#2ca02c;stroke-width:1.5;stroke-linecap:butt;stroke-linejoin:round;stroke-miterlimit:10;stroke-dasharray:9.6, 2.4, 1.5, 2.4;stroke-dashoffset:0;stroke-opacity:1"
           d="m 76.34,372.2537 h 376" /></g></g><g
       id="g2662"><g
         clip-path="url(#clipPath2668)"
         id="g2664"><path
           id="path2670"
           style="fill:none;stroke:#ffffff;stroke-width:1.5;stroke-linecap:butt;stroke-linejoin:round;stroke-miterlimit:10;stroke-dasharray:5.55, 2.4;stroke-dashoffset:0;stroke-opacity:1"
           d="m 76.34,504.45571 h 376" /></g></g><g
       id="g2672"><path
         id="path2674"
         style="fill:none;stroke:#000000;stroke-width:0.8;stroke-linecap:square;stroke-linejoin:miter;stroke-miterlimit:10;stroke-dasharray:none;stroke-opacity:1"
         d="M 76.34,52.76 V 488.88" /><path
         id="path2676"
         style="fill:none;stroke:#000000;stroke-width:0.8;stroke-linecap:square;stroke-linejoin:miter;stroke-miterlimit:10;stroke-dasharray:none;stroke-opacity:1"
         d="M 452.34,52.76 V 488.88" /><path
         id="path2678"
         style="fill:none;stroke:#000000;stroke-width:0.8;stroke-linecap:square;stroke-linejoin:miter;stroke-miterlimit:10;stroke-dasharray:none;stroke-opacity:1"
         d="m 76.34,52.76 h 376" /><path
         id="path2680"
         style="fill:none;stroke:#000000;stroke-width:0.8;stroke-linecap:square;stroke-linejoin:miter;stroke-miterlimit:10;stroke-dasharray:none;stroke-opacity:1"
         d="m 76.34,488.88 h 376" /><path
         id="path2682"
         style="fill:#ffffff;fill-opacity:0.8;fill-rule:nonzero;stroke:#cccccc;stroke-width:1;stroke-linecap:butt;stroke-linejoin:miter;stroke-miterlimit:10;stroke-dasharray:none;stroke-opacity:0.8"
         d="m 458.5,185.655 h 245.75938 c 1.59999,0 2.4,0.8 2.4,2.4 V 486.48 c 0,1.6 -0.80001,2.4 -2.4,2.4 H 458.5 c -1.6,0 -2.4,-0.8 -2.4,-2.4 V 188.055 c 0,-1.6 0.8,-2.4 2.4,-2.4 z" /><path
         id="path2684"
         style="fill:none;stroke:#1f77b4;stroke-width:1.5;stroke-linecap:butt;stroke-linejoin:round;stroke-miterlimit:10;stroke-dasharray:1.5, 2.475;stroke-dashoffset:0;stroke-opacity:1"
         d="m 460.9,479.155 h 24" /><text
         id="text2688"
         style="font-variant:normal;font-weight:normal;font-size:12px;font-family:DejaVuSans;-inkscape-font-specification:DejaVuSans;writing-mode:lr-tb;fill:#000000;fill-opacity:1;fill-rule:nonzero;stroke:none"
         transform="matrix(1,0,0,-1,494.5,474.955)"><tspan
           id="tspan2686"
           sodipodi:role="line"
           y="0"
           x="0 8.9759998 16.32 20.136 29.58 37.200001 41.903999 45.240002 56.928001 60.264 66.564003 73.919998 78.624001 81.959999 89.304001">No Optimization</tspan></text><path
         id="path2690"
         style="fill:none;stroke:#ffffff;stroke-width:1.5;stroke-linecap:butt;stroke-linejoin:round;stroke-miterlimit:10;stroke-dasharray:5.55, 2.4;stroke-dashoffset:0;stroke-opacity:1"
         d="m 460.9,461.53 h 24" /><path
         id="path2692"
         style="fill:none;stroke:#1f77b4;stroke-width:1.5;stroke-linecap:square;stroke-linejoin:round;stroke-miterlimit:10;stroke-dasharray:none;stroke-opacity:0.8"
         d="m 460.9,443.905 h 24" /><text
         id="text2696"
         style="font-variant:normal;font-weight:normal;font-size:12px;font-family:DejaVuSans;-inkscape-font-specification:DejaVuSans;writing-mode:lr-tb;fill:#000000;fill-opacity:1;fill-rule:nonzero;stroke:none"
         transform="matrix(1,0,0,-1,494.5,439.705)"><tspan
           id="tspan2694"
           sodipodi:role="line"
           y="0"
           x="0 9.4440002 17.063999 21.768 25.104 36.792 40.127998 46.428001 53.784 58.487999 61.824001 69.167999 76.776001 80.82 84.636002 92.844002 100.464 103.8 111.144 114.48 122.088">Optimization: Adjoint</tspan></text><path
         id="path2698"
         style="fill:none;stroke:#ff7f0e;stroke-width:1.5;stroke-linecap:square;stroke-linejoin:round;stroke-miterlimit:10;stroke-dasharray:none;stroke-opacity:0.8"
         d="m 460.9,426.28 h 24" /><text
         id="text2702"
         style="font-variant:normal;font-weight:normal;font-size:12px;font-family:DejaVuSans;-inkscape-font-specification:DejaVuSans;writing-mode:lr-tb;fill:#000000;fill-opacity:1;fill-rule:nonzero;stroke:none"
         transform="matrix(1,0,0,-1,494.5,422.08)"><tspan
           id="tspan2700"
           sodipodi:role="line"
           y="0"
           x="0 9.4440002 17.063999 21.768 25.104 36.792 40.127998 46.428001 53.784 58.487999 61.824001 69.167999 76.776001 80.82 84.636002 93.012001 101.244 110.544 118.752 127.728 131.54401 143.412 150.76801 155.7 167.388 171.72 179.34 184.04401 191.39999 196.332">Optimization: CBGAN Warm-Start</tspan></text><path
         id="path2704"
         style="fill:none;stroke:#2ca02c;stroke-width:1.5;stroke-linecap:square;stroke-linejoin:round;stroke-miterlimit:10;stroke-dasharray:none;stroke-opacity:0.8"
         d="m 460.9,408.655 h 24" /><text
         id="text2708"
         style="font-variant:normal;font-weight:normal;font-size:12px;font-family:DejaVuSans;-inkscape-font-specification:DejaVuSans;writing-mode:lr-tb;fill:#000000;fill-opacity:1;fill-rule:nonzero;stroke:none"
         transform="matrix(1,0,0,-1,494.5,404.455)"><tspan
           id="tspan2706"
           sodipodi:role="line"
           y="0"
           x="0 9.4440002 17.063999 21.768 25.104 36.792 40.127998 46.428001 53.784 58.487999 61.824001 69.167999 76.776001 80.82 84.636002 93.012001 100.596 108.828 118.128 126.336 135.312 139.12801 150.996 158.35201 163.284 174.972 179.304 186.924 191.62801 198.98399 203.916">Optimization: CEBGAN Warm-Start</tspan></text><path
         id="path2710"
         style="fill:none;stroke:#ffffff;stroke-width:1.5;stroke-linecap:butt;stroke-linejoin:round;stroke-miterlimit:10;stroke-dasharray:5.55, 2.4;stroke-dashoffset:0;stroke-opacity:1"
         d="m 460.9,391.03 h 24" /><path
         id="path2712"
         style="fill:none;stroke:#1f77b4;stroke-width:1.5;stroke-linecap:butt;stroke-linejoin:round;stroke-miterlimit:10;stroke-dasharray:5.55, 2.4;stroke-dashoffset:0;stroke-opacity:1"
         d="m 460.9,373.405 h 24" /><text
         id="text2716"
         style="font-variant:normal;font-weight:normal;font-size:12px;font-family:DejaVuSans;-inkscape-font-specification:DejaVuSans;writing-mode:lr-tb;fill:#000000;fill-opacity:1;fill-rule:nonzero;stroke:none"
         transform="matrix(1,0,0,-1,494.5,369.205)"><tspan
           id="tspan2714"
           sodipodi:role="line"
           y="0"
           x="0 3.54 11.148 14.484 19.188 22.524 29.879999 33.216 37.259998 41.076 49.284 56.903999 60.240002 67.584 70.919998 78.528 83.232002 87.047997 91.727997 101.172 108.78 116.16 120.492 128.112 132.81599 140.196 147.81599">Initial: Adjoint (One-Step)</tspan></text><path
         id="path2718"
         style="fill:none;stroke:#ff7f0e;stroke-width:1.5;stroke-linecap:butt;stroke-linejoin:round;stroke-miterlimit:10;stroke-dasharray:5.55, 2.4;stroke-dashoffset:0;stroke-opacity:1"
         d="m 460.9,355.78 h 24" /><text
         id="text2722"
         style="font-variant:normal;font-weight:normal;font-size:12px;font-family:DejaVuSans;-inkscape-font-specification:DejaVuSans;writing-mode:lr-tb;fill:#000000;fill-opacity:1;fill-rule:nonzero;stroke:none"
         transform="matrix(1,0,0,-1,494.5,351.58)"><tspan
           id="tspan2720"
           sodipodi:role="line"
           y="0"
           x="0 3.54 11.148 14.484 19.188 22.524 29.879999 33.216 37.259998 41.076 49.452 57.683998 66.984001 75.192001">Initial: CBGAN</tspan></text><path
         id="path2724"
         style="fill:none;stroke:#2ca02c;stroke-width:1.5;stroke-linecap:butt;stroke-linejoin:round;stroke-miterlimit:10;stroke-dasharray:5.55, 2.4;stroke-dashoffset:0;stroke-opacity:1"
         d="m 460.9,338.155 h 24" /><text
         id="text2728"
         style="font-variant:normal;font-weight:normal;font-size:12px;font-family:DejaVuSans;-inkscape-font-specification:DejaVuSans;writing-mode:lr-tb;fill:#000000;fill-opacity:1;fill-rule:nonzero;stroke:none"
         transform="matrix(1,0,0,-1,494.5,333.955)"><tspan
           id="tspan2726"
           sodipodi:role="line"
           y="0"
           x="0 3.54 11.148 14.484 19.188 22.524 29.879999 33.216 37.259998 41.076 49.452 57.035999 65.267998 74.568001 82.776001">Initial: CEBGAN</tspan></text><path
         id="path2730"
         style="fill:none;stroke:#ffffff;stroke-width:1.5;stroke-linecap:butt;stroke-linejoin:round;stroke-miterlimit:10;stroke-dasharray:5.55, 2.4;stroke-dashoffset:0;stroke-opacity:1"
         d="m 460.9,320.53 h 24" /><path
         id="path2732"
         style="fill:none;stroke:#1f77b4;stroke-width:1.5;stroke-linecap:butt;stroke-linejoin:round;stroke-miterlimit:10;stroke-dasharray:9.6, 2.4, 1.5, 2.4;stroke-dashoffset:0;stroke-opacity:1"
         d="m 460.9,302.905 h 24" /><text
         id="text2736"
         style="font-variant:normal;font-weight:normal;font-size:12px;font-family:DejaVuSans;-inkscape-font-specification:DejaVuSans;writing-mode:lr-tb;fill:#000000;fill-opacity:1;fill-rule:nonzero;stroke:none"
         transform="matrix(1,0,0,-1,494.5,298.705)"><tspan
           id="tspan2734"
           sodipodi:role="line"
           y="0"
           x="0 6.9000001 10.236 17.844 25.200001 28.535999 32.580002 36.396 44.604 52.223999 55.560001 62.903999 66.239998 73.848">Final: Adjoint</tspan></text><path
         id="path2738"
         style="fill:none;stroke:#ff7f0e;stroke-width:1.5;stroke-linecap:butt;stroke-linejoin:round;stroke-miterlimit:10;stroke-dasharray:9.6, 2.4, 1.5, 2.4;stroke-dashoffset:0;stroke-opacity:1"
         d="m 460.9,285.28 h 24" /><text
         id="text2742"
         style="font-variant:normal;font-weight:normal;font-size:12px;font-family:DejaVuSans;-inkscape-font-specification:DejaVuSans;writing-mode:lr-tb;fill:#000000;fill-opacity:1;fill-rule:nonzero;stroke:none"
         transform="matrix(1,0,0,-1,494.5,281.08)"><tspan
           id="tspan2740"
           sodipodi:role="line"
           y="0"
           x="0 6.9000001 10.236 17.844 25.200001 28.535999 32.580002 36.396 44.771999 53.004002 62.304001 70.512001">Final: CBGAN</tspan></text><path
         id="path2744"
         style="fill:none;stroke:#2ca02c;stroke-width:1.5;stroke-linecap:butt;stroke-linejoin:round;stroke-miterlimit:10;stroke-dasharray:9.6, 2.4, 1.5, 2.4;stroke-dashoffset:0;stroke-opacity:1"
         d="m 460.9,267.655 h 24" /><text
         id="text2748"
         style="font-variant:normal;font-weight:normal;font-size:12px;font-family:DejaVuSans;-inkscape-font-specification:DejaVuSans;writing-mode:lr-tb;fill:#000000;fill-opacity:1;fill-rule:nonzero;stroke:none"
         transform="matrix(1,0,0,-1,494.5,263.455)"><tspan
           id="tspan2746"
           sodipodi:role="line"
           y="0"
           x="0 6.9000001 10.236 17.844 25.200001 28.535999 32.580002 36.396 44.771999 52.355999 60.588001 69.888 78.096001">Final: CEBGAN</tspan></text><path
         id="path2750"
         style="fill:none;stroke:#ffffff;stroke-width:1.5;stroke-linecap:butt;stroke-linejoin:round;stroke-miterlimit:10;stroke-dasharray:5.55, 2.4;stroke-dashoffset:0;stroke-opacity:1"
         d="m 460.9,250.03 h 24" /><path
         id="path2752"
         style="fill:#1f77b4;fill-opacity:0.2;fill-rule:nonzero;stroke:none"
         d="m 460.9,228.205 h 24 v 8.4 h -24 z" /><text
         id="text2756"
         style="font-variant:normal;font-weight:normal;font-size:12px;font-family:DejaVuSans;-inkscape-font-specification:DejaVuSans;writing-mode:lr-tb;fill:#000000;fill-opacity:1;fill-rule:nonzero;stroke:none"
         transform="matrix(1,0,0,-1,494.5,228.205)"><tspan
           id="tspan2754"
           sodipodi:role="line"
           y="0"
           x="0 7.6199999 12.324 19.944 29.184 36.563999 43.667999 47.484001 55.716 63.060001 70.667999 78.276001 85.896004 89.940002 93.755997 101.964 109.584 112.92 120.264 123.6 131.20799">StdDev Bound: Adjoint</tspan></text><path
         id="path2758"
         style="fill:#ff7f0e;fill-opacity:0.2;fill-rule:nonzero;stroke:none"
         d="m 460.9,210.58 h 24 v 8.4 h -24 z" /><text
         id="text2762"
         style="font-variant:normal;font-weight:normal;font-size:12px;font-family:DejaVuSans;-inkscape-font-specification:DejaVuSans;writing-mode:lr-tb;fill:#000000;fill-opacity:1;fill-rule:nonzero;stroke:none"
         transform="matrix(1,0,0,-1,494.5,210.58)"><tspan
           id="tspan2760"
           sodipodi:role="line"
           y="0"
           x="0 7.6199999 12.324 19.944 29.184 36.563999 43.667999 47.484001 55.716 63.060001 70.667999 78.276001 85.896004 89.940002 93.755997 102.132 110.364 119.664 127.872">StdDev Bound: CBGAN</tspan></text><path
         id="path2764"
         style="fill:#2ca02c;fill-opacity:0.2;fill-rule:nonzero;stroke:none"
         d="m 460.9,192.955 h 24 v 8.4 h -24 z" /><text
         id="text2768"
         style="font-variant:normal;font-weight:normal;font-size:12px;font-family:DejaVuSans;-inkscape-font-specification:DejaVuSans;writing-mode:lr-tb;fill:#000000;fill-opacity:1;fill-rule:nonzero;stroke:none"
         transform="matrix(1,0,0,-1,494.5,192.955)"><tspan
           id="tspan2766"
           sodipodi:role="line"
           y="0"
           x="0 7.6199999 12.324 19.944 29.184 36.563999 43.667999 47.484001 55.716 63.060001 70.667999 78.276001 85.896004 89.940002 93.755997 102.132 109.716 117.948 127.248 135.45599">StdDev Bound: CEBGAN</tspan></text></g></g></svg>
