<?xml version="1.0" encoding="UTF-8" standalone="no"?>
<svg
   xmlns:dc="http://purl.org/dc/elements/1.1/"
   xmlns:cc="http://creativecommons.org/ns#"
   xmlns:rdf="http://www.w3.org/1999/02/22-rdf-syntax-ns#"
   xmlns:svg="http://www.w3.org/2000/svg"
   xmlns="http://www.w3.org/2000/svg"
   xmlns:sodipodi="http://sodipodi.sourceforge.net/DTD/sodipodi-0.dtd"
   xmlns:inkscape="http://www.inkscape.org/namespaces/inkscape"
   inkscape:version="1.0 (4035a4fb49, 2020-05-01)"
   sodipodi:docname="sample_train.svg"
   viewBox="0 0 960 384"
   height="384"
   width="960"
   xml:space="preserve"
   id="svg833"
   version="1.1"><metadata
     id="metadata839"><rdf:RDF><cc:Work
         rdf:about=""><dc:format>image/svg+xml</dc:format><dc:type
           rdf:resource="http://purl.org/dc/dcmitype/StillImage" /><dc:title></dc:title></cc:Work></rdf:RDF></metadata><defs
     id="defs837"><clipPath
       id="clipPath851"
       clipPathUnits="userSpaceOnUse"><path
         id="path849"
         d="m 15.12,219.78 h 161.1 v 34.14 H 15.12 Z" /></clipPath><clipPath
       id="clipPath871"
       clipPathUnits="userSpaceOnUse"><path
         id="path869"
         d="M -1016,-351 H 1660 V 1068 H -1016 Z" /></clipPath><clipPath
       id="clipPath881"
       clipPathUnits="userSpaceOnUse"><path
         id="path879"
         d="m 191.34,219.78 h 161.1 v 34.14 h -161.1 z" /></clipPath><clipPath
       id="clipPath901"
       clipPathUnits="userSpaceOnUse"><path
         id="path899"
         d="M -1016,-351 H 1660 V 1068 H -1016 Z" /></clipPath><clipPath
       id="clipPath911"
       clipPathUnits="userSpaceOnUse"><path
         id="path909"
         d="m 367.56,219.78 h 161.1 v 34.14 h -161.1 z" /></clipPath><clipPath
       id="clipPath931"
       clipPathUnits="userSpaceOnUse"><path
         id="path929"
         d="M -1016,-351 H 1660 V 1068 H -1016 Z" /></clipPath><clipPath
       id="clipPath941"
       clipPathUnits="userSpaceOnUse"><path
         id="path939"
         d="m 543.78,219.78 h 161.1 v 34.14 h -161.1 z" /></clipPath><clipPath
       id="clipPath961"
       clipPathUnits="userSpaceOnUse"><path
         id="path959"
         d="M -1016,-351 H 1660 V 1068 H -1016 Z" /></clipPath><clipPath
       id="clipPath971"
       clipPathUnits="userSpaceOnUse"><path
         id="path969"
         d="m 15.12,151.56 h 161.1 V 185.7 H 15.12 Z" /></clipPath><clipPath
       id="clipPath991"
       clipPathUnits="userSpaceOnUse"><path
         id="path989"
         d="M -1016,-351 H 1660 V 1068 H -1016 Z" /></clipPath><clipPath
       id="clipPath1001"
       clipPathUnits="userSpaceOnUse"><path
         id="path999"
         d="m 191.34,151.56 h 161.1 v 34.14 h -161.1 z" /></clipPath><clipPath
       id="clipPath1021"
       clipPathUnits="userSpaceOnUse"><path
         id="path1019"
         d="M -1016,-351 H 1660 V 1068 H -1016 Z" /></clipPath><clipPath
       id="clipPath1031"
       clipPathUnits="userSpaceOnUse"><path
         id="path1029"
         d="m 367.56,151.56 h 161.1 v 34.14 h -161.1 z" /></clipPath><clipPath
       id="clipPath1051"
       clipPathUnits="userSpaceOnUse"><path
         id="path1049"
         d="M -1016,-351 H 1660 V 1068 H -1016 Z" /></clipPath><clipPath
       id="clipPath1061"
       clipPathUnits="userSpaceOnUse"><path
         id="path1059"
         d="m 543.78,151.56 h 161.1 v 34.14 h -161.1 z" /></clipPath><clipPath
       id="clipPath1081"
       clipPathUnits="userSpaceOnUse"><path
         id="path1079"
         d="M -1016,-351 H 1660 V 1068 H -1016 Z" /></clipPath><clipPath
       id="clipPath1091"
       clipPathUnits="userSpaceOnUse"><path
         id="path1089"
         d="m 15.12,83.34 h 161.1 v 34.14 H 15.12 Z" /></clipPath><clipPath
       id="clipPath1111"
       clipPathUnits="userSpaceOnUse"><path
         id="path1109"
         d="M -1016,-351 H 1660 V 1068 H -1016 Z" /></clipPath><clipPath
       id="clipPath1121"
       clipPathUnits="userSpaceOnUse"><path
         id="path1119"
         d="m 191.34,83.34 h 161.1 v 34.14 h -161.1 z" /></clipPath><clipPath
       id="clipPath1141"
       clipPathUnits="userSpaceOnUse"><path
         id="path1139"
         d="M -1016,-351 H 1660 V 1068 H -1016 Z" /></clipPath><clipPath
       id="clipPath1151"
       clipPathUnits="userSpaceOnUse"><path
         id="path1149"
         d="m 367.56,83.34 h 161.1 v 34.14 h -161.1 z" /></clipPath><clipPath
       id="clipPath1171"
       clipPathUnits="userSpaceOnUse"><path
         id="path1169"
         d="M -1016,-351 H 1660 V 1068 H -1016 Z" /></clipPath><clipPath
       id="clipPath1181"
       clipPathUnits="userSpaceOnUse"><path
         id="path1179"
         d="m 543.78,83.34 h 161.1 v 34.14 h -161.1 z" /></clipPath><clipPath
       id="clipPath1201"
       clipPathUnits="userSpaceOnUse"><path
         id="path1199"
         d="M -1016,-351 H 1660 V 1068 H -1016 Z" /></clipPath><clipPath
       id="clipPath1211"
       clipPathUnits="userSpaceOnUse"><path
         id="path1209"
         d="m 15.12,15.12 h 161.1 V 49.26 H 15.12 Z" /></clipPath><clipPath
       id="clipPath1231"
       clipPathUnits="userSpaceOnUse"><path
         id="path1229"
         d="M -1016,-351 H 1660 V 1068 H -1016 Z" /></clipPath><clipPath
       id="clipPath1241"
       clipPathUnits="userSpaceOnUse"><path
         id="path1239"
         d="m 191.34,15.12 h 161.1 v 34.14 h -161.1 z" /></clipPath><clipPath
       id="clipPath1261"
       clipPathUnits="userSpaceOnUse"><path
         id="path1259"
         d="M -1016,-351 H 1660 V 1068 H -1016 Z" /></clipPath><clipPath
       id="clipPath1271"
       clipPathUnits="userSpaceOnUse"><path
         id="path1269"
         d="m 367.56,15.12 h 161.1 v 34.14 h -161.1 z" /></clipPath><clipPath
       id="clipPath1291"
       clipPathUnits="userSpaceOnUse"><path
         id="path1289"
         d="M -1016,-351 H 1660 V 1068 H -1016 Z" /></clipPath><clipPath
       id="clipPath1301"
       clipPathUnits="userSpaceOnUse"><path
         id="path1299"
         d="m 543.78,15.12 h 161.1 v 34.14 h -161.1 z" /></clipPath><clipPath
       id="clipPath1321"
       clipPathUnits="userSpaceOnUse"><path
         id="path1319"
         d="M -1016,-351 H 1660 V 1068 H -1016 Z" /></clipPath></defs><sodipodi:namedview
     inkscape:current-layer="g841"
     inkscape:window-maximized="1"
     inkscape:window-y="-8"
     inkscape:window-x="-8"
     inkscape:cy="192"
     inkscape:cx="480"
     inkscape:zoom="0.71875"
     showgrid="false"
     id="namedview835"
     inkscape:window-height="1002"
     inkscape:window-width="1920"
     inkscape:pageshadow="2"
     inkscape:pageopacity="0"
     guidetolerance="10"
     gridtolerance="10"
     objecttolerance="10"
     borderopacity="1"
     bordercolor="#666666"
     pagecolor="#ffffff" /><g
     transform="matrix(1.3333333,0,0,-1.3333333,0,384)"
     inkscape:label="sample_train"
     inkscape:groupmode="layer"
     id="g841"><path
       id="path843"
       style="fill:#ffffff;fill-opacity:1;fill-rule:nonzero;stroke:none"
       d="M 0,0 H 720 V 288 H 0 Z" /><g
       id="g845"><g
         clip-path="url(#clipPath851)"
         id="g847"><path
           id="path853"
           style="fill:none;stroke:#000000;stroke-width:1.5;stroke-linecap:square;stroke-linejoin:round;stroke-miterlimit:10;stroke-dasharray:none;stroke-opacity:1"
           d="m 168.78802,228.63298 -31.95067,5.34596 -27.09937,4.87118 -22.823326,4.04209 -10.185474,1.59594 -7.237784,0.95256 -6.444585,0.64514 -5.810877,0.34048 -4.268418,0.0452 -4.511386,-0.2127 -2.952816,-0.33049 -2.716,-0.47632 -2.766966,-0.69809 -2.148195,-0.72455 -2.590342,-1.13654 -2.10792,-1.18273 -2.414742,-1.70467 -2.096497,-1.84829 -1.898198,-2.03649 -1.650689,-2.12642 -1.471575,-2.30916 -0.93189,-1.95023 -0.26479,-1.0742 0.06063,-0.56609 0.352956,-0.43433 0.45518,-0.18331 0.502193,-0.0765 1.900101,0.0681 3.842675,0.54648 10.488781,1.5921 6.647426,0.7571 5.943418,0.47411 6.809404,0.3088 7.659573,0.0685 6.905478,-0.15689 7.965956,-0.38043 12.137859,-0.83016 25.03831,-1.79184 11.57782,-0.56141 9.49421,-0.2423 8.50476,-0.0114 8.62046,0.22283 7.27074,0.42281 4.05122,0.35971 0.22261,0.36716 v 0" /></g></g><g
       id="g855"><g
         transform="translate(56.67,259.92)"
         id="g857"><text
           id="text861"
           style="font-variant:normal;font-weight:normal;font-size:16.8px;font-family:DejaVuSans;-inkscape-font-specification:DejaVuSans;writing-mode:lr-tb;fill:#000000;fill-opacity:1;fill-rule:nonzero;stroke:none"
           transform="matrix(1,0,0,-1,14.344595,0.53125)"><tspan
             id="tspan859"
             sodipodi:role="line"
             y="0"
             x="0 17.34638 28.033056 33.372292 44.058968 54.745644">=1.87°</tspan></text><g
           transform="matrix(0.0168,0,0,0.0168,0,0.53125)"
           id="g863"><g
             id="g865"><g
               clip-path="url(#clipPath871)"
               id="g867"><path
                 id="path873"
                 style="fill:#000000;fill-opacity:1;fill-rule:nonzero;stroke:none"
                 d="m 409,254 1,113 c 0,76 -29,115 -87,116 -44,0 -79,-18 -105,-54 -34,-45 -57,-97 -68,-156 -14,-72 -13,-125 5,-159 18,-35 47,-52 87,-52 43,0 83,34 120,104 l 47,88 m -71,305 c 102,2 152,-50 151,-155 0,0 25,47 76,143 h 80 L 487,250 486,144 c 0,-16 4,-31 13,-44 10,-16 20,-24 31,-24 h 43 L 559,0 H 504 C 473,0 447,13 425,41 415,55 409,76 409,104 387,69 359,37 323,8 305,-5 273,-11 227,-11 151,-10 99,14 71,62 43,112 37,183 55,273 c 18,96 53,167 103,211 55,49 115,74 180,75" /></g></g></g></g></g><g
       id="g875"><g
         clip-path="url(#clipPath881)"
         id="g877"><path
           id="path883"
           style="fill:none;stroke:#000000;stroke-width:1.5;stroke-linecap:square;stroke-linejoin:round;stroke-miterlimit:10;stroke-dasharray:none;stroke-opacity:1"
           d="m 345.01842,231.35171 -4.50129,1.1457 -8.567,2.26361 -20.99265,5.36893 -7.8794,1.81174 -6.7643,1.37662 -6.60788,1.13769 -5.77836,0.7993 -6.01665,0.62197 -6.5307,0.42696 -6.93945,0.1777 -6.06893,-0.0657 -6.75698,-0.30262 -6.12517,-0.47617 -6.68711,-0.73789 -6.81233,-0.99433 -6.7498,-1.24841 -6.21158,-1.41566 -5.02031,-1.37303 -4.59897,-1.49552 -4.25348,-1.68585 -2.42353,-1.18214 -2.02825,-1.24209 -1.38458,-1.2034 -0.57615,-0.9254 -0.0808,-0.75333 0.19185,-0.65358 0.19171,-0.30509 0.4092,-0.42248 1.16973,-0.67606 2.15347,-0.63119 3.10176,-0.46971 4.78965,-0.37713 8.15268,-0.31525 13.97396,-0.2429 16.75323,-0.0674 16.05669,0.15729 15.79673,0.37723 19.14791,0.67877 23.43185,1.03857 12.51161,0.73943 8.04006,0.62505 0.5287,0.069 0.0538,0.42897 v 0" /></g></g><g
       id="g885"><g
         transform="translate(232.89,259.92)"
         id="g887"><text
           id="text891"
           style="font-variant:normal;font-weight:normal;font-size:16.8px;font-family:DejaVuSans;-inkscape-font-specification:DejaVuSans;writing-mode:lr-tb;fill:#000000;fill-opacity:1;fill-rule:nonzero;stroke:none"
           transform="matrix(1,0,0,-1,14.344595,0.53125)"><tspan
             id="tspan889"
             sodipodi:role="line"
             y="0"
             x="0 17.34638 28.033056 33.372292 44.058968 54.745644">=2.66°</tspan></text><g
           transform="matrix(0.0168,0,0,0.0168,0,0.53125)"
           id="g893"><g
             id="g895"><g
               clip-path="url(#clipPath901)"
               id="g897"><path
                 id="path903"
                 style="fill:#000000;fill-opacity:1;fill-rule:nonzero;stroke:none"
                 d="m 409,254 1,113 c 0,76 -29,115 -87,116 -44,0 -79,-18 -105,-54 -34,-45 -57,-97 -68,-156 -14,-72 -13,-125 5,-159 18,-35 47,-52 87,-52 43,0 83,34 120,104 l 47,88 m -71,305 c 102,2 152,-50 151,-155 0,0 25,47 76,143 h 80 L 487,250 486,144 c 0,-16 4,-31 13,-44 10,-16 20,-24 31,-24 h 43 L 559,0 H 504 C 473,0 447,13 425,41 415,55 409,76 409,104 387,69 359,37 323,8 305,-5 273,-11 227,-11 151,-10 99,14 71,62 43,112 37,183 55,273 c 18,96 53,167 103,211 55,49 115,74 180,75" /></g></g></g></g></g><g
       id="g905"><g
         clip-path="url(#clipPath911)"
         id="g907"><path
           id="path913"
           style="fill:none;stroke:#000000;stroke-width:1.5;stroke-linecap:square;stroke-linejoin:round;stroke-miterlimit:10;stroke-dasharray:none;stroke-opacity:1"
           d="m 521.26551,235.04842 -0.16315,0.061 -6.24233,1.59414 -4.85453,0.99166 -5.65813,0.81528 -5.23106,0.50684 -9.45042,0.64503 -13.38155,0.68122 -12.25898,0.41302 -12.92198,0.21618 -20.00085,0.0753 -21.00686,-0.1136 -9.31582,-0.26263 -7.06409,-0.43142 -4.56074,-0.46248 -3.98576,-0.59167 -2.55446,-0.51634 -2.49281,-0.6627 -2.04436,-0.73319 -1.62227,-0.81658 -1.09929,-0.86868 -0.40026,-0.61641 -0.0573,-0.56115 0.215,-0.42528 0.48857,-0.36006 0.98959,-0.34692 1.67047,-0.28497 2.43099,-0.19839 4.53922,-0.13198 8.56217,0.0479 12.04955,0.32558 16.91037,0.70817 29.29062,1.52698 16.02505,0.71201 10.72575,0.25628 8.55631,0.009 9.16498,-0.208 8.82301,-0.41684 8.72239,-0.63213 7.27469,-0.63186 v 0" /></g></g><g
       id="g915"><g
         transform="translate(409.11,259.92)"
         id="g917"><text
           id="text921"
           style="font-variant:normal;font-weight:normal;font-size:16.8px;font-family:DejaVuSans;-inkscape-font-specification:DejaVuSans;writing-mode:lr-tb;fill:#000000;fill-opacity:1;fill-rule:nonzero;stroke:none"
           transform="matrix(1,0,0,-1,14.344595,0.53125)"><tspan
             id="tspan919"
             sodipodi:role="line"
             y="0"
             x="0 17.34638 28.033056 33.372292 44.058968 54.745644">=8.41°</tspan></text><g
           transform="matrix(0.0168,0,0,0.0168,0,0.53125)"
           id="g923"><g
             id="g925"><g
               clip-path="url(#clipPath931)"
               id="g927"><path
                 id="path933"
                 style="fill:#000000;fill-opacity:1;fill-rule:nonzero;stroke:none"
                 d="m 409,254 1,113 c 0,76 -29,115 -87,116 -44,0 -79,-18 -105,-54 -34,-45 -57,-97 -68,-156 -14,-72 -13,-125 5,-159 18,-35 47,-52 87,-52 43,0 83,34 120,104 l 47,88 m -71,305 c 102,2 152,-50 151,-155 0,0 25,47 76,143 h 80 L 487,250 486,144 c 0,-16 4,-31 13,-44 10,-16 20,-24 31,-24 h 43 L 559,0 H 504 C 473,0 447,13 425,41 415,55 409,76 409,104 387,69 359,37 323,8 305,-5 273,-11 227,-11 151,-10 99,14 71,62 43,112 37,183 55,273 c 18,96 53,167 103,211 55,49 115,74 180,75" /></g></g></g></g></g><g
       id="g935"><g
         clip-path="url(#clipPath941)"
         id="g937"><path
           id="path943"
           style="fill:none;stroke:#000000;stroke-width:1.5;stroke-linecap:square;stroke-linejoin:round;stroke-miterlimit:10;stroke-dasharray:none;stroke-opacity:1"
           d="m 697.45431,234.3945 -4.84632,1.73694 -10.29444,3.33508 -9.27292,2.79208 -8.95013,2.47946 -8.53595,2.12797 -7.12912,1.56931 -7.23837,1.37223 -6.67085,1.04637 -7.23325,0.87797 -6.81834,0.56922 -5.81395,0.27953 -6.72431,0.0804 -5.41823,-0.13033 -6.74145,-0.41644 -5.29287,-0.53789 -5.08315,-0.70849 -4.48824,-0.80045 -4.66707,-1.0319 -4.41311,-1.1964 -4.21614,-1.38753 -2.56896,-0.98963 -3.04947,-1.35258 -2.76067,-1.43878 -2.40317,-1.48269 -2.03206,-1.50744 -1.68906,-1.56596 -1.22363,-1.5521 -0.39689,-0.72724 -0.36848,-1.27901 -0.011,-0.52625 0.25366,-1.04814 0.54393,-0.92636 1.29861,-1.33023 2.10001,-1.4623 2.53425,-1.33518 3.00203,-1.26462 4.22419,-1.41665 4.71847,-1.23394 4.80078,-0.97259 4.53511,-0.70727 5.05048,-0.58372 6.50581,-0.48027 5.58944,-0.1984 7.43125,0.008 6.56907,0.24113 5.94884,0.39233 7.74656,0.73875 8.47855,1.07252 8.26458,1.26778 10.03741,1.75355 29.25326,5.29092 6.96553,1.01349 6.01518,0.67128 4.11786,0.19898 0.44962,-0.0117 0.0201,0.63986 v 0" /></g></g><g
       id="g945"><g
         transform="translate(585.33,259.92)"
         id="g947"><text
           id="text951"
           style="font-variant:normal;font-weight:normal;font-size:16.8px;font-family:DejaVuSans;-inkscape-font-specification:DejaVuSans;writing-mode:lr-tb;fill:#000000;fill-opacity:1;fill-rule:nonzero;stroke:none"
           transform="matrix(1,0,0,-1,14.344595,0.53125)"><tspan
             id="tspan949"
             sodipodi:role="line"
             y="0"
             x="0 17.34638 28.033056 33.372292 44.058968 54.745644">=2.22°</tspan></text><g
           transform="matrix(0.0168,0,0,0.0168,0,0.53125)"
           id="g953"><g
             id="g955"><g
               clip-path="url(#clipPath961)"
               id="g957"><path
                 id="path963"
                 style="fill:#000000;fill-opacity:1;fill-rule:nonzero;stroke:none"
                 d="m 409,254 1,113 c 0,76 -29,115 -87,116 -44,0 -79,-18 -105,-54 -34,-45 -57,-97 -68,-156 -14,-72 -13,-125 5,-159 18,-35 47,-52 87,-52 43,0 83,34 120,104 l 47,88 m -71,305 c 102,2 152,-50 151,-155 0,0 25,47 76,143 h 80 L 487,250 486,144 c 0,-16 4,-31 13,-44 10,-16 20,-24 31,-24 h 43 L 559,0 H 504 C 473,0 447,13 425,41 415,55 409,76 409,104 387,69 359,37 323,8 305,-5 273,-11 227,-11 151,-10 99,14 71,62 43,112 37,183 55,273 c 18,96 53,167 103,211 55,49 115,74 180,75" /></g></g></g></g></g><g
       id="g965"><g
         clip-path="url(#clipPath971)"
         id="g967"><path
           id="path973"
           style="fill:none;stroke:#000000;stroke-width:1.5;stroke-linecap:square;stroke-linejoin:round;stroke-miterlimit:10;stroke-dasharray:none;stroke-opacity:1"
           d="m 168.79431,166.15777 -4.84632,1.74102 -8.86826,2.8913 -9.32667,2.84091 -8.1543,2.30113 -8.95247,2.29232 -7.24803,1.64495 -7.53597,1.47999 -7.07375,1.15047 -5.95968,0.77438 -6.967574,0.66534 -6.028947,0.35832 -6.068637,0.15077 -5.856278,-0.0595 -7.038899,-0.34897 -5.451477,-0.49106 -4.838858,-0.6117 -4.496887,-0.73242 -4.687132,-0.95383 -5.152856,-1.31183 -3.917513,-1.22107 -3.946657,-1.47517 -3.049477,-1.35489 -2.760668,-1.44128 -2.403172,-1.48528 -2.032057,-1.51005 -1.68906,-1.56861 -1.223628,-1.55459 -0.396892,-0.7283 -0.36848,-1.28048 -0.01098,-0.52638 0.25366,-1.04812 0.543932,-0.9263 1.298612,-1.33005 2.100012,-1.46197 2.534249,-1.33475 3.002026,-1.26407 4.224188,-1.41583 4.718473,-1.23297 4.80078,-0.97155 4.535111,-0.70628 5.050485,-0.58258 6.505804,-0.47877 5.589438,-0.19713 7.43125,0.009 6.569072,0.24252 5.948837,0.3935 7.746567,0.74009 8.478543,1.07367 9.8911,1.53941 12.07503,2.15939 22.44284,4.09824 8.12618,1.25775 5.80926,0.72302 4.19095,0.35149 2.56808,0.039 0.0201,0.63986 v 0" /></g></g><g
       id="g975"><g
         transform="translate(56.67,191.7)"
         id="g977"><text
           id="text981"
           style="font-variant:normal;font-weight:normal;font-size:16.8px;font-family:DejaVuSans;-inkscape-font-specification:DejaVuSans;writing-mode:lr-tb;fill:#000000;fill-opacity:1;fill-rule:nonzero;stroke:none"
           transform="matrix(1,0,0,-1,14.344595,0.53125)"><tspan
             id="tspan979"
             sodipodi:role="line"
             y="0"
             x="0 17.34638 28.033056 33.372292 44.058968 54.745644">=1.55°</tspan></text><g
           transform="matrix(0.0168,0,0,0.0168,0,0.53125)"
           id="g983"><g
             id="g985"><g
               clip-path="url(#clipPath991)"
               id="g987"><path
                 id="path993"
                 style="fill:#000000;fill-opacity:1;fill-rule:nonzero;stroke:none"
                 d="m 409,254 1,113 c 0,76 -29,115 -87,116 -44,0 -79,-18 -105,-54 -34,-45 -57,-97 -68,-156 -14,-72 -13,-125 5,-159 18,-35 47,-52 87,-52 43,0 83,34 120,104 l 47,88 m -71,305 c 102,2 152,-50 151,-155 0,0 25,47 76,143 h 80 L 487,250 486,144 c 0,-16 4,-31 13,-44 10,-16 20,-24 31,-24 h 43 L 559,0 H 504 C 473,0 447,13 425,41 415,55 409,76 409,104 387,69 359,37 323,8 305,-5 273,-11 227,-11 151,-10 99,14 71,62 43,112 37,183 55,273 c 18,96 53,167 103,211 55,49 115,74 180,75" /></g></g></g></g></g><g
       id="g995"><g
         clip-path="url(#clipPath1001)"
         id="g997"><path
           id="path1003"
           style="fill:none;stroke:#000000;stroke-width:1.5;stroke-linecap:square;stroke-linejoin:round;stroke-miterlimit:10;stroke-dasharray:none;stroke-opacity:1"
           d="m 345.00802,160.41981 -31.95067,5.34253 -27.09937,4.86894 -22.82333,4.04065 -10.18547,1.59556 -7.23778,0.95244 -6.44459,0.64516 -5.81088,0.34065 -4.26841,0.0454 -4.51139,-0.21236 -2.95282,-0.33019 -2.716,-0.476 -2.76696,-0.6977 -2.1482,-0.72419 -2.59034,-1.13605 -2.10792,-1.18227 -2.41474,-1.70406 -2.0965,-1.84766 -1.8982,-2.03581 -1.65069,-2.12572 -1.47157,-2.30836 -0.93189,-1.9495 -0.26479,-1.07383 0.0606,-0.56609 0.35296,-0.43442 0.45518,-0.18337 0.50219,-0.0766 1.9001,0.0679 3.84268,0.54625 10.48878,1.59162 6.64742,0.75682 5.94342,0.47386 6.80941,0.30848 7.65957,0.0682 6.90548,-0.15726 7.96595,-0.3809 12.13786,-0.83092 25.03831,-1.79346 11.57782,-0.562 9.49421,-0.24255 8.50476,-0.0113 8.62046,0.22293 7.27074,0.42604 4.05122,0.36268 0.22261,0.36716 v 0" /></g></g><g
       id="g1005"><g
         transform="translate(232.89,191.7)"
         id="g1007"><text
           id="text1011"
           style="font-variant:normal;font-weight:normal;font-size:16.8px;font-family:DejaVuSans;-inkscape-font-specification:DejaVuSans;writing-mode:lr-tb;fill:#000000;fill-opacity:1;fill-rule:nonzero;stroke:none"
           transform="matrix(1,0,0,-1,14.344595,0.53125)"><tspan
             id="tspan1009"
             sodipodi:role="line"
             y="0"
             x="0 17.34638 28.033056 33.372292 44.058968 54.745644">=3.26°</tspan></text><g
           transform="matrix(0.0168,0,0,0.0168,0,0.53125)"
           id="g1013"><g
             id="g1015"><g
               clip-path="url(#clipPath1021)"
               id="g1017"><path
                 id="path1023"
                 style="fill:#000000;fill-opacity:1;fill-rule:nonzero;stroke:none"
                 d="m 409,254 1,113 c 0,76 -29,115 -87,116 -44,0 -79,-18 -105,-54 -34,-45 -57,-97 -68,-156 -14,-72 -13,-125 5,-159 18,-35 47,-52 87,-52 43,0 83,34 120,104 l 47,88 m -71,305 c 102,2 152,-50 151,-155 0,0 25,47 76,143 h 80 L 487,250 486,144 c 0,-16 4,-31 13,-44 10,-16 20,-24 31,-24 h 43 L 559,0 H 504 C 473,0 447,13 425,41 415,55 409,76 409,104 387,69 359,37 323,8 305,-5 273,-11 227,-11 151,-10 99,14 71,62 43,112 37,183 55,273 c 18,96 53,167 103,211 55,49 115,74 180,75" /></g></g></g></g></g><g
       id="g1025"><g
         clip-path="url(#clipPath1031)"
         id="g1027"><path
           id="path1033"
           style="fill:none;stroke:#000000;stroke-width:1.5;stroke-linecap:square;stroke-linejoin:round;stroke-miterlimit:10;stroke-dasharray:none;stroke-opacity:1"
           d="m 521.2141,162.92465 -2.64936,0.59845 -5.054,1.27892 -13.66977,2.72748 -25.68359,5.16715 -8.13892,1.38913 -7.305,1.02856 -5.8658,0.64322 -7.05809,0.53301 -6.45117,0.24472 -5.99072,0.0182 -7.22944,-0.23858 -6.25185,-0.42569 -6.12561,-0.60601 -5.98985,-0.77332 -6.24555,-1.01487 -5.81996,-1.18281 -5.15578,-1.31093 -4.13119,-1.30416 -3.0155,-1.15092 -3.42177,-1.59693 -2.02927,-1.16809 -1.60177,-1.13839 -1.03441,-1.0147 -0.32205,-0.54583 -0.091,-0.61351 0.1548,-0.62333 0.2497,-0.34581 0.84051,-0.489 1.56311,-0.27856 2.53249,-0.016 4.50509,0.30477 18.0101,1.44393 10.78081,0.55415 10.14696,0.29359 11.84085,0.11027 14.72468,-0.10074 55.78967,-0.64907 9.86254,0.0276 3.52238,-0.23203 1.90932,0.0407 0.0215,0.38986 v 0" /></g></g><g
       id="g1035"><g
         transform="translate(409.11,191.7)"
         id="g1037"><text
           id="text1041"
           style="font-variant:normal;font-weight:normal;font-size:16.8px;font-family:DejaVuSans;-inkscape-font-specification:DejaVuSans;writing-mode:lr-tb;fill:#000000;fill-opacity:1;fill-rule:nonzero;stroke:none"
           transform="matrix(1,0,0,-1,14.344595,0.53125)"><tspan
             id="tspan1039"
             sodipodi:role="line"
             y="0"
             x="0 17.34638 28.033056 33.372292 44.058968 54.745644">=8.41°</tspan></text><g
           transform="matrix(0.0168,0,0,0.0168,0,0.53125)"
           id="g1043"><g
             id="g1045"><g
               clip-path="url(#clipPath1051)"
               id="g1047"><path
                 id="path1053"
                 style="fill:#000000;fill-opacity:1;fill-rule:nonzero;stroke:none"
                 d="m 409,254 1,113 c 0,76 -29,115 -87,116 -44,0 -79,-18 -105,-54 -34,-45 -57,-97 -68,-156 -14,-72 -13,-125 5,-159 18,-35 47,-52 87,-52 43,0 83,34 120,104 l 47,88 m -71,305 c 102,2 152,-50 151,-155 0,0 25,47 76,143 h 80 L 487,250 486,144 c 0,-16 4,-31 13,-44 10,-16 20,-24 31,-24 h 43 L 559,0 H 504 C 473,0 447,13 425,41 415,55 409,76 409,104 387,69 359,37 323,8 305,-5 273,-11 227,-11 151,-10 99,14 71,62 43,112 37,183 55,273 c 18,96 53,167 103,211 55,49 115,74 180,75" /></g></g></g></g></g><g
       id="g1055"><g
         clip-path="url(#clipPath1061)"
         id="g1057"><path
           id="path1063"
           style="fill:none;stroke:#000000;stroke-width:1.5;stroke-linecap:square;stroke-linejoin:round;stroke-miterlimit:10;stroke-dasharray:none;stroke-opacity:1"
           d="m 697.48375,165.71461 -0.11848,0.0605 -3.17162,1.19687 -9.99728,3.40955 -6.73896,2.2105 -6.35217,1.8734 -6.9544,1.76882 -6.63219,1.39725 -6.39464,1.08931 -6.57743,0.87633 -7.48455,0.72405 -6.83401,0.43351 -8.28128,0.27108 -8.48015,0.0302 -8.59117,-0.1941 -8.6521,-0.425 -6.88424,-0.53364 -6.73193,-0.74329 -5.24922,-0.78308 -4.62767,-0.88817 -4.44783,-1.08503 -4.12357,-1.27915 -2.85762,-1.09633 -2.65581,-1.23227 -2.24837,-1.27129 -2.05974,-1.45178 -1.62945,-1.50864 -1.10485,-1.49894 -0.43834,-1.11588 -0.0384,-0.90576 0.26537,-0.73573 0.62302,-0.74965 1.262,-0.86902 2.03044,-0.90446 2.59459,-0.82981 2.92177,-0.72549 4.34355,-0.85196 4.61464,-0.72002 6.32405,-0.78089 6.76327,-0.64224 8.80324,-0.59671 7.35509,-0.30978 8.11885,-0.13934 8.92626,0.11615 8.15005,0.38559 7.45176,0.6156 6.74452,0.78989 6.26445,0.93233 7.19721,1.28265 11.08295,2.24393 8.56129,1.67961 6.03217,0.96977 4.66971,0.5288 3.11523,0.19699 5.13074,0.0394 3.87534,-0.13875 2.4474,-0.4506 0.762,-0.25932 v 0" /></g></g><g
       id="g1065"><g
         transform="translate(585.33,191.7)"
         id="g1067"><text
           id="text1071"
           style="font-variant:normal;font-weight:normal;font-size:16.8px;font-family:DejaVuSans;-inkscape-font-specification:DejaVuSans;writing-mode:lr-tb;fill:#000000;fill-opacity:1;fill-rule:nonzero;stroke:none"
           transform="matrix(1,0,0,-1,14.344595,0.53125)"><tspan
             id="tspan1069"
             sodipodi:role="line"
             y="0"
             x="0 17.34638 28.033056 33.356667 44.043343 54.730019">=3.72°</tspan></text><g
           transform="matrix(0.0168,0,0,0.0168,0,0.53125)"
           id="g1073"><g
             id="g1075"><g
               clip-path="url(#clipPath1081)"
               id="g1077"><path
                 id="path1083"
                 style="fill:#000000;fill-opacity:1;fill-rule:nonzero;stroke:none"
                 d="m 409,254 1,113 c 0,76 -29,115 -87,116 -44,0 -79,-18 -105,-54 -34,-45 -57,-97 -68,-156 -14,-72 -13,-125 5,-159 18,-35 47,-52 87,-52 43,0 83,34 120,104 l 47,88 m -71,305 c 102,2 152,-50 151,-155 0,0 25,47 76,143 h 80 L 487,250 486,144 c 0,-16 4,-31 13,-44 10,-16 20,-24 31,-24 h 43 L 559,0 H 504 C 473,0 447,13 425,41 415,55 409,76 409,104 387,69 359,37 323,8 305,-5 273,-11 227,-11 151,-10 99,14 71,62 43,112 37,183 55,273 c 18,96 53,167 103,211 55,49 115,74 180,75" /></g></g></g></g></g><g
       id="g1085"><g
         clip-path="url(#clipPath1091)"
         id="g1087"><path
           id="path1093"
           style="fill:none;stroke:#000000;stroke-width:1.5;stroke-linecap:square;stroke-linejoin:round;stroke-miterlimit:10;stroke-dasharray:none;stroke-opacity:1"
           d="m 168.79842,96.156668 -7.21816,1.736839 -17.11395,4.187423 -9.72883,2.12775 -7.8794,1.50465 -6.7643,1.09688 -6.60788,0.87217 -7.46391,0.73062 -7.040067,0.4417 -7.590153,0.22843 -7.537723,0.008 -8.459214,-0.20885 -9.288001,-0.4641 -8.495828,-0.64984 -6.608762,-0.69216 -6.593823,-0.91699 -4.509335,-0.81204 -5.059272,-1.17914 -3.36289,-1.02116 -2.54084,-0.96991 -2.423529,-1.18643 -2.028249,-1.364544 -0.848997,-0.787569 -0.535585,-0.651366 -0.576152,-1.159563 -0.08084,-0.841765 0.191856,-0.66759 0.191709,-0.313658 0.409194,-0.436805 1.169732,-0.705957 2.153468,-0.67027 3.101761,-0.510728 4.789649,-0.423148 6.38205,-0.307627 10.480434,-0.271118 14.953741,-0.161256 15.278431,0.04686 15.020818,0.265295 18.275917,0.578533 23.31468,0.98679 17.98784,0.964206 7.19604,0.54397 5.50347,0.606966 0.0537,0.428966 v 0" /></g></g><g
       id="g1095"><g
         transform="translate(56.67,123.48)"
         id="g1097"><text
           id="text1101"
           style="font-variant:normal;font-weight:normal;font-size:16.8px;font-family:DejaVuSans;-inkscape-font-specification:DejaVuSans;writing-mode:lr-tb;fill:#000000;fill-opacity:1;fill-rule:nonzero;stroke:none"
           transform="matrix(1,0,0,-1,14.344595,0.53125)"><tspan
             id="tspan1099"
             sodipodi:role="line"
             y="0"
             x="0 17.34638 28.033056 33.372292 44.058968 54.745644">=7.40°</tspan></text><g
           transform="matrix(0.0168,0,0,0.0168,0,0.53125)"
           id="g1103"><g
             id="g1105"><g
               clip-path="url(#clipPath1111)"
               id="g1107"><path
                 id="path1113"
                 style="fill:#000000;fill-opacity:1;fill-rule:nonzero;stroke:none"
                 d="m 409,254 1,113 c 0,76 -29,115 -87,116 -44,0 -79,-18 -105,-54 -34,-45 -57,-97 -68,-156 -14,-72 -13,-125 5,-159 18,-35 47,-52 87,-52 43,0 83,34 120,104 l 47,88 m -71,305 c 102,2 152,-50 151,-155 0,0 25,47 76,143 h 80 L 487,250 486,144 c 0,-16 4,-31 13,-44 10,-16 20,-24 31,-24 h 43 L 559,0 H 504 C 473,0 447,13 425,41 415,55 409,76 409,104 387,69 359,37 323,8 305,-5 273,-11 227,-11 151,-10 99,14 71,62 43,112 37,183 55,273 c 18,96 53,167 103,211 55,49 115,74 180,75" /></g></g></g></g></g><g
       id="g1115"><g
         clip-path="url(#clipPath1121)"
         id="g1117"><path
           id="path1123"
           style="fill:none;stroke:#000000;stroke-width:1.5;stroke-linecap:square;stroke-linejoin:round;stroke-miterlimit:10;stroke-dasharray:none;stroke-opacity:1"
           d="m 345.04375,95.957372 -0.11848,0.06049 -5.21027,2.015554 -7.95863,2.800724 -9.68006,3.18394 -8.48587,2.53077 -6.6278,1.76841 -6.7126,1.57881 -6.77865,1.35623 -5.089,0.84892 -6.06776,0.81334 -6.68198,0.63953 -6.12591,0.35134 -5.5783,0.12979 -6.40505,-0.067 -6.7971,-0.31636 -6.94297,-0.58488 -6.88424,-0.85545 -6.73193,-1.13484 -5.24922,-1.12579 -4.62767,-1.20514 -4.44783,-1.39095 -4.12357,-1.55152 -2.85762,-1.27052 -2.65581,-1.376 -2.24837,-1.37197 -2.05974,-1.51736 -1.62945,-1.529286 -1.10485,-1.478724 -0.43834,-1.081934 -0.0384,-0.890609 0.26537,-0.73247 0.62302,-0.743997 1.262,-0.859294 2.03044,-0.890298 2.59459,-0.812708 2.92177,-0.706795 4.34355,-0.824629 4.61464,-0.691253 6.32405,-0.741688 6.76327,-0.600595 8.80324,-0.543296 7.35509,-0.26635 8.11885,-0.09339 8.92626,0.163173 8.15005,0.424093 7.45176,0.645904 6.74452,0.812226 6.26445,0.947766 7.19721,1.292765 24.4087,4.662636 4.22624,0.524691 4.82641,0.357786 3.69388,0.04522 3.34795,-0.194766 1.96425,-0.263139 3.2094,-0.835167 v 0" /></g></g><g
       id="g1125"><g
         transform="translate(232.89,123.48)"
         id="g1127"><text
           id="text1131"
           style="font-variant:normal;font-weight:normal;font-size:16.8px;font-family:DejaVuSans;-inkscape-font-specification:DejaVuSans;writing-mode:lr-tb;fill:#000000;fill-opacity:1;fill-rule:nonzero;stroke:none"
           transform="matrix(1,0,0,-1,14.344595,0.53125)"><tspan
             id="tspan1129"
             sodipodi:role="line"
             y="0"
             x="0 17.34638 28.033056 33.372292 44.058968 54.745644">=7.55°</tspan></text><g
           transform="matrix(0.0168,0,0,0.0168,0,0.53125)"
           id="g1133"><g
             id="g1135"><g
               clip-path="url(#clipPath1141)"
               id="g1137"><path
                 id="path1143"
                 style="fill:#000000;fill-opacity:1;fill-rule:nonzero;stroke:none"
                 d="m 409,254 1,113 c 0,76 -29,115 -87,116 -44,0 -79,-18 -105,-54 -34,-45 -57,-97 -68,-156 -14,-72 -13,-125 5,-159 18,-35 47,-52 87,-52 43,0 83,34 120,104 l 47,88 m -71,305 c 102,2 152,-50 151,-155 0,0 25,47 76,143 h 80 L 487,250 486,144 c 0,-16 4,-31 13,-44 10,-16 20,-24 31,-24 h 43 L 559,0 H 504 C 473,0 447,13 425,41 415,55 409,76 409,104 387,69 359,37 323,8 305,-5 273,-11 227,-11 151,-10 99,14 71,62 43,112 37,183 55,273 c 18,96 53,167 103,211 55,49 115,74 180,75" /></g></g></g></g></g><g
       id="g1145"><g
         clip-path="url(#clipPath1151)"
         id="g1147"><path
           id="path1153"
           style="fill:none;stroke:#000000;stroke-width:1.5;stroke-linecap:square;stroke-linejoin:round;stroke-miterlimit:10;stroke-dasharray:none;stroke-opacity:1"
           d="m 521.23432,97.936447 -4.84633,1.742043 -8.86826,2.89383 -9.32667,2.84441 -8.1543,2.30416 -8.95247,2.2946 -7.24803,1.64558 -7.53597,1.4794 -7.07375,1.14881 -5.95968,0.7723 -6.96757,0.6623 -6.02895,0.35538 -6.06864,0.14768 -5.85628,-0.0624 -7.0389,-0.35219 -5.45147,-0.49315 -4.83886,-0.6132 -4.49689,-0.73341 -4.68713,-0.9544 -5.15286,-1.31183 -3.91751,-1.22058 -3.94666,-1.47419 -3.04947,-1.35374 -2.76067,-1.43991 -2.40317,-1.48377 -2.03206,-1.50848 -1.68906,-1.567 -1.22363,-1.5531 -0.39689,-0.727677 -0.36848,-1.279659 -0.011,-0.526313 0.25366,-1.048048 0.54393,-0.926235 1.29861,-1.329956 2.10001,-1.461867 2.53425,-1.334651 3.00203,-1.263961 4.22419,-1.415662 4.71847,-1.232758 4.80078,-0.971302 4.53511,-0.706004 5.05048,-0.582244 6.50581,-0.478291 5.58944,-0.196674 7.43125,0.01013 6.56907,0.243121 5.94884,0.394055 7.74656,0.740794 8.47855,1.074381 9.8911,1.540087 12.07503,2.159854 22.44284,4.097271 8.12618,1.256979 5.80926,0.722012 4.19095,0.348031 2.56808,0.03815 0.0201,0.639859 v 0" /></g></g><g
       id="g1155"><g
         transform="translate(409.11,123.48)"
         id="g1157"><text
           id="text1161"
           style="font-variant:normal;font-weight:normal;font-size:16.8px;font-family:DejaVuSans;-inkscape-font-specification:DejaVuSans;writing-mode:lr-tb;fill:#000000;fill-opacity:1;fill-rule:nonzero;stroke:none"
           transform="matrix(1,0,0,-1,14.344595,0.53125)"><tspan
             id="tspan1159"
             sodipodi:role="line"
             y="0"
             x="0 17.34638 28.033056 33.356667 44.043343 54.730019">=2.72°</tspan></text><g
           transform="matrix(0.0168,0,0,0.0168,0,0.53125)"
           id="g1163"><g
             id="g1165"><g
               clip-path="url(#clipPath1171)"
               id="g1167"><path
                 id="path1173"
                 style="fill:#000000;fill-opacity:1;fill-rule:nonzero;stroke:none"
                 d="m 409,254 1,113 c 0,76 -29,115 -87,116 -44,0 -79,-18 -105,-54 -34,-45 -57,-97 -68,-156 -14,-72 -13,-125 5,-159 18,-35 47,-52 87,-52 43,0 83,34 120,104 l 47,88 m -71,305 c 102,2 152,-50 151,-155 0,0 25,47 76,143 h 80 L 487,250 486,144 c 0,-16 4,-31 13,-44 10,-16 20,-24 31,-24 h 43 L 559,0 H 504 C 473,0 447,13 425,41 415,55 409,76 409,104 387,69 359,37 323,8 305,-5 273,-11 227,-11 151,-10 99,14 71,62 43,112 37,183 55,273 c 18,96 53,167 103,211 55,49 115,74 180,75" /></g></g></g></g></g><g
       id="g1175"><g
         clip-path="url(#clipPath1181)"
         id="g1177"><path
           id="path1183"
           style="fill:none;stroke:#000000;stroke-width:1.5;stroke-linecap:square;stroke-linejoin:round;stroke-miterlimit:10;stroke-dasharray:none;stroke-opacity:1"
           d="m 697.45431,97.941112 -4.84632,1.740367 -8.86826,2.891691 -9.32667,2.84297 -8.15429,2.30333 -8.95248,2.29427 -7.24803,1.64569 -7.53597,1.47978 -7.07375,1.14933 -5.95968,0.77281 -6.96757,0.66293 -6.02895,0.3559 -6.06864,0.14817 -5.85628,-0.062 -7.0389,-0.35176 -5.45147,-0.49289 -4.83886,-0.613 -4.49689,-0.73327 -4.68713,-0.9543 -5.15286,-1.31173 -3.91751,-1.2205 -3.94666,-1.4741 -3.04947,-1.35366 -2.76067,-1.43979 -2.40317,-1.48362 -2.03206,-1.50829 -1.68906,-1.56676 -1.22363,-1.55283 -0.39689,-0.727544 -0.36848,-1.279438 -0.011,-0.526291 0.25366,-1.048253 0.54393,-0.926476 1.29861,-1.330353 2.10001,-1.462337 2.53425,-1.335102 3.00203,-1.264413 4.22419,-1.416212 4.71847,-1.233303 4.80078,-0.971806 4.53511,-0.706449 5.05048,-0.582712 6.50581,-0.478861 5.58944,-0.197138 7.43125,0.0095 6.56907,0.242637 5.94884,0.393645 7.74656,0.740306 8.47855,1.073917 9.8911,1.53966 12.07503,2.159542 22.44284,4.09749 8.12618,1.256747 5.80927,0.72277 4.19094,0.354519 2.56808,0.03985 0.0201,0.63986 v 0" /></g></g><g
       id="g1185"><g
         transform="translate(585.33,123.48)"
         id="g1187"><text
           id="text1191"
           style="font-variant:normal;font-weight:normal;font-size:16.8px;font-family:DejaVuSans;-inkscape-font-specification:DejaVuSans;writing-mode:lr-tb;fill:#000000;fill-opacity:1;fill-rule:nonzero;stroke:none"
           transform="matrix(1,0,0,-1,14.344595,0.53125)"><tspan
             id="tspan1189"
             sodipodi:role="line"
             y="0"
             x="0 17.34638 28.033056 33.372292 44.058968 54.745644">=2.28°</tspan></text><g
           transform="matrix(0.0168,0,0,0.0168,0,0.53125)"
           id="g1193"><g
             id="g1195"><g
               clip-path="url(#clipPath1201)"
               id="g1197"><path
                 id="path1203"
                 style="fill:#000000;fill-opacity:1;fill-rule:nonzero;stroke:none"
                 d="m 409,254 1,113 c 0,76 -29,115 -87,116 -44,0 -79,-18 -105,-54 -34,-45 -57,-97 -68,-156 -14,-72 -13,-125 5,-159 18,-35 47,-52 87,-52 43,0 83,34 120,104 l 47,88 m -71,305 c 102,2 152,-50 151,-155 0,0 25,47 76,143 h 80 L 487,250 486,144 c 0,-16 4,-31 13,-44 10,-16 20,-24 31,-24 h 43 L 559,0 H 504 C 473,0 447,13 425,41 415,55 409,76 409,104 387,69 359,37 323,8 305,-5 273,-11 227,-11 151,-10 99,14 71,62 43,112 37,183 55,273 c 18,96 53,167 103,211 55,49 115,74 180,75" /></g></g></g></g></g><g
       id="g1205"><g
         clip-path="url(#clipPath1211)"
         id="g1207"><path
           id="path1213"
           style="fill:none;stroke:#000000;stroke-width:1.5;stroke-linecap:square;stroke-linejoin:round;stroke-miterlimit:10;stroke-dasharray:none;stroke-opacity:1"
           d="m 168.79431,29.727167 -4.84632,1.739045 -8.86826,2.889503 -9.32667,2.840202 -8.1543,2.300516 -8.95247,2.29131 -7.24803,1.643705 -7.53597,1.4783 -7.07375,1.148587 -5.95968,0.772689 -6.967574,0.663376 -6.028947,0.35677 -6.068637,0.149436 -5.856278,-0.06045 -7.038899,-0.349562 -5.451477,-0.491017 -4.838858,-0.611271 -4.496887,-0.731649 -4.687132,-0.952635 -5.152856,-1.31002 -3.917513,-1.219337 -3.946657,-1.473105 -3.049477,-1.353058 -2.760668,-1.43943 -2.403172,-1.483504 -2.032057,-1.508396 -1.68906,-1.567099 -1.223628,-1.553342 -0.396892,-0.727828 -0.36848,-1.279921 -0.01098,-0.52634 0.25366,-1.048143 0.543932,-0.926341 1.298612,-1.330123 2.100012,-1.462062 2.534249,-1.334842 3.002026,-1.264166 4.224188,-1.415942 4.718473,-1.23308 4.80078,-0.971654 4.535111,-0.706366 5.050485,-0.582683 6.505804,-0.478917 5.589438,-0.197268 7.43125,0.0093 6.569072,0.242293 5.948837,0.393263 7.746567,0.739723 8.478543,1.073199 9.8911,1.538782 12.07503,2.158583 22.44284,4.097132 8.12618,1.257277 5.80926,0.723383 4.19095,0.355758 2.56808,0.04014 0.0201,0.63986 v 0" /></g></g><g
       id="g1215"><g
         transform="translate(56.67,55.26)"
         id="g1217"><text
           id="text1221"
           style="font-variant:normal;font-weight:normal;font-size:16.8px;font-family:DejaVuSans;-inkscape-font-specification:DejaVuSans;writing-mode:lr-tb;fill:#000000;fill-opacity:1;fill-rule:nonzero;stroke:none"
           transform="matrix(1,0,0,-1,14.344595,0.53125)"><tspan
             id="tspan1219"
             sodipodi:role="line"
             y="0"
             x="0 17.34638 28.033056 33.372292 44.058968 54.745644">=5.22°</tspan></text><g
           transform="matrix(0.0168,0,0,0.0168,0,0.53125)"
           id="g1223"><g
             id="g1225"><g
               clip-path="url(#clipPath1231)"
               id="g1227"><path
                 id="path1233"
                 style="fill:#000000;fill-opacity:1;fill-rule:nonzero;stroke:none"
                 d="m 409,254 1,113 c 0,76 -29,115 -87,116 -44,0 -79,-18 -105,-54 -34,-45 -57,-97 -68,-156 -14,-72 -13,-125 5,-159 18,-35 47,-52 87,-52 43,0 83,34 120,104 l 47,88 m -71,305 c 102,2 152,-50 151,-155 0,0 25,47 76,143 h 80 L 487,250 486,144 c 0,-16 4,-31 13,-44 10,-16 20,-24 31,-24 h 43 L 559,0 H 504 C 473,0 447,13 425,41 415,55 409,76 409,104 387,69 359,37 323,8 305,-5 273,-11 227,-11 151,-10 99,14 71,62 43,112 37,183 55,273 c 18,96 53,167 103,211 55,49 115,74 180,75" /></g></g></g></g></g><g
       id="g1235"><g
         clip-path="url(#clipPath1241)"
         id="g1237"><path
           id="path1243"
           style="fill:none;stroke:#000000;stroke-width:1.5;stroke-linecap:square;stroke-linejoin:round;stroke-miterlimit:10;stroke-dasharray:none;stroke-opacity:1"
           d="m 345.04551,30.353882 -0.16315,0.06093 -6.24233,1.488172 -8.40356,1.841853 -5.71261,0.931454 -5.09325,0.598082 -5.98472,0.492159 -8.38599,0.431121 -10.40749,0.268914 -11.58383,0.06235 -12.6317,-0.140441 -21.14862,-0.495539 -21.4925,-0.694083 -8.27014,-0.440816 -6.5906,-0.547114 -5.26007,-0.680845 -3.77296,-0.75051 -2.04436,-0.589271 -1.62227,-0.666747 -1.09929,-0.72995 -0.40026,-0.541132 -0.0573,-0.533603 0.215,-0.4151 0.48857,-0.349974 0.98959,-0.339509 1.67047,-0.287116 3.94958,-0.298621 6.26064,-0.159708 10.39652,0.01587 12.53445,0.262834 13.4066,0.499413 16.38006,0.842307 29.66671,1.602767 9.64594,0.27698 9.12251,0.03372 8.92728,-0.210022 8.1562,-0.421218 14.62861,-1.105057 v 0" /></g></g><g
       id="g1245"><g
         transform="translate(232.89,55.26)"
         id="g1247"><text
           id="text1251"
           style="font-variant:normal;font-weight:normal;font-size:16.8px;font-family:DejaVuSans;-inkscape-font-specification:DejaVuSans;writing-mode:lr-tb;fill:#000000;fill-opacity:1;fill-rule:nonzero;stroke:none"
           transform="matrix(1,0,0,-1,14.344595,0.53125)"><tspan
             id="tspan1249"
             sodipodi:role="line"
             y="0"
             x="0 17.34638 28.033056 33.372292 44.058968 54.745644">=4.48°</tspan></text><g
           transform="matrix(0.0168,0,0,0.0168,0,0.53125)"
           id="g1253"><g
             id="g1255"><g
               clip-path="url(#clipPath1261)"
               id="g1257"><path
                 id="path1263"
                 style="fill:#000000;fill-opacity:1;fill-rule:nonzero;stroke:none"
                 d="m 409,254 1,113 c 0,76 -29,115 -87,116 -44,0 -79,-18 -105,-54 -34,-45 -57,-97 -68,-156 -14,-72 -13,-125 5,-159 18,-35 47,-52 87,-52 43,0 83,34 120,104 l 47,88 m -71,305 c 102,2 152,-50 151,-155 0,0 25,47 76,143 h 80 L 487,250 486,144 c 0,-16 4,-31 13,-44 10,-16 20,-24 31,-24 h 43 L 559,0 H 504 C 473,0 447,13 425,41 415,55 409,76 409,104 387,69 359,37 323,8 305,-5 273,-11 227,-11 151,-10 99,14 71,62 43,112 37,183 55,273 c 18,96 53,167 103,211 55,49 115,74 180,75" /></g></g></g></g></g><g
       id="g1265"><g
         clip-path="url(#clipPath1271)"
         id="g1267"><path
           id="path1273"
           style="fill:none;stroke:#000000;stroke-width:1.5;stroke-linecap:square;stroke-linejoin:round;stroke-miterlimit:10;stroke-dasharray:none;stroke-opacity:1"
           d="m 521.23432,29.728235 -4.84633,1.739301 -8.86826,2.889441 -9.32667,2.839778 -8.1543,2.300055 -8.95247,2.290755 -7.24803,1.643263 -7.53597,1.477884 -7.07375,1.148268 -5.95968,0.772493 -6.96757,0.663247 -6.02895,0.356752 -6.06864,0.149511 -5.85628,-0.06029 -7.0389,-0.349265 -5.45147,-0.490715 -4.83886,-0.61096 -4.49689,-0.73133 -4.68713,-0.952283 -5.15286,-1.309626 -3.91751,-1.219046 -3.94666,-1.472833 -3.04947,-1.352878 -2.76067,-1.439302 -2.40317,-1.483437 -2.03206,-1.508389 -1.68906,-1.567156 -1.22363,-1.553459 -0.39689,-0.727899 -0.36848,-1.280049 -0.011,-0.526354 0.25366,-1.048147 0.54393,-0.926343 1.29861,-1.33012 2.10001,-1.462049 2.53425,-1.33482 3.00203,-1.264135 4.22419,-1.415893 4.71847,-1.233021 4.80078,-0.97159 4.53511,-0.706305 5.05048,-0.582615 6.50581,-0.478833 5.58944,-0.197202 7.43125,0.0093 6.56907,0.242337 5.94884,0.393284 7.74656,0.739713 8.47855,1.07313 9.8911,1.538608 12.07503,2.158214 22.44284,4.096045 8.12618,1.256771 5.80926,0.723314 4.19095,0.357042 2.56808,0.04049 0.0201,0.63986 v 0" /></g></g><g
       id="g1275"><g
         transform="translate(409.11,55.26)"
         id="g1277"><text
           id="text1281"
           style="font-variant:normal;font-weight:normal;font-size:16.8px;font-family:DejaVuSans;-inkscape-font-specification:DejaVuSans;writing-mode:lr-tb;fill:#000000;fill-opacity:1;fill-rule:nonzero;stroke:none"
           transform="matrix(1,0,0,-1,14.344595,0.53125)"><tspan
             id="tspan1279"
             sodipodi:role="line"
             y="0"
             x="0 17.34638 28.033056 33.372292 44.058968 54.745644">=3.26°</tspan></text><g
           transform="matrix(0.0168,0,0,0.0168,0,0.53125)"
           id="g1283"><g
             id="g1285"><g
               clip-path="url(#clipPath1291)"
               id="g1287"><path
                 id="path1293"
                 style="fill:#000000;fill-opacity:1;fill-rule:nonzero;stroke:none"
                 d="m 409,254 1,113 c 0,76 -29,115 -87,116 -44,0 -79,-18 -105,-54 -34,-45 -57,-97 -68,-156 -14,-72 -13,-125 5,-159 18,-35 47,-52 87,-52 43,0 83,34 120,104 l 47,88 m -71,305 c 102,2 152,-50 151,-155 0,0 25,47 76,143 h 80 L 487,250 486,144 c 0,-16 4,-31 13,-44 10,-16 20,-24 31,-24 h 43 L 559,0 H 504 C 473,0 447,13 425,41 415,55 409,76 409,104 387,69 359,37 323,8 305,-5 273,-11 227,-11 151,-10 99,14 71,62 43,112 37,183 55,273 c 18,96 53,167 103,211 55,49 115,74 180,75" /></g></g></g></g></g><g
       id="g1295"><g
         clip-path="url(#clipPath1301)"
         id="g1297"><path
           id="path1303"
           style="fill:none;stroke:#000000;stroke-width:1.5;stroke-linecap:square;stroke-linejoin:round;stroke-miterlimit:10;stroke-dasharray:none;stroke-opacity:1"
           d="m 697.45431,29.723117 -4.84632,1.740136 -8.86826,2.889947 -9.32667,2.840139 -8.15429,2.301037 -8.95248,2.292638 -7.24803,1.64526 -7.53597,1.48015 -7.07375,1.150324 -5.95968,0.77401 -6.96757,0.664622 -6.02895,0.357509 -6.06864,0.149814 -5.85628,-0.06045 -7.0389,-0.35004 -5.45147,-0.491725 -4.83886,-0.612122 -4.49689,-0.732606 -4.68713,-0.953778 -5.15286,-1.311413 -3.91751,-1.22047 -3.94666,-1.474286 -3.04947,-1.353989 -2.76067,-1.440276 -2.40317,-1.48424 -2.03206,-1.509016 -1.68906,-1.567613 -1.22363,-1.553722 -0.39689,-0.727958 -0.36848,-1.280057 -0.011,-0.526348 0.25366,-1.048281 0.54393,-0.926512 1.29861,-1.330422 2.10001,-1.462436 2.53425,-1.335215 3.00203,-1.264548 4.22419,-1.416405 4.71847,-1.233524 4.80078,-0.972037 4.53511,-0.706671 5.05048,-0.58296 6.50581,-0.479176 5.58944,-0.197401 7.43125,0.0092 6.56907,0.242374 5.94884,0.393439 7.74656,0.74009 8.47855,1.073768 9.8911,1.539625 12.07503,2.159745 22.44284,4.098763 8.12618,1.257423 5.80927,0.723249 4.19094,0.355126 2.56808,0.03998 0.0201,0.639859 v 0" /></g></g><g
       id="g1305"><g
         transform="translate(585.33,55.26)"
         id="g1307"><text
           id="text1311"
           style="font-variant:normal;font-weight:normal;font-size:16.8px;font-family:DejaVuSans;-inkscape-font-specification:DejaVuSans;writing-mode:lr-tb;fill:#000000;fill-opacity:1;fill-rule:nonzero;stroke:none"
           transform="matrix(1,0,0,-1,14.344595,0.53125)"><tspan
             id="tspan1309"
             sodipodi:role="line"
             y="0"
             x="0 17.34638 28.033056 33.372292 44.058968 54.745644">=4.25°</tspan></text><g
           transform="matrix(0.0168,0,0,0.0168,0,0.53125)"
           id="g1313"><g
             id="g1315"><g
               clip-path="url(#clipPath1321)"
               id="g1317"><path
                 id="path1323"
                 style="fill:#000000;fill-opacity:1;fill-rule:nonzero;stroke:none"
                 d="m 409,254 1,113 c 0,76 -29,115 -87,116 -44,0 -79,-18 -105,-54 -34,-45 -57,-97 -68,-156 -14,-72 -13,-125 5,-159 18,-35 47,-52 87,-52 43,0 83,34 120,104 l 47,88 m -71,305 c 102,2 152,-50 151,-155 0,0 25,47 76,143 h 80 L 487,250 486,144 c 0,-16 4,-31 13,-44 10,-16 20,-24 31,-24 h 43 L 559,0 H 504 C 473,0 447,13 425,41 415,55 409,76 409,104 387,69 359,37 323,8 305,-5 273,-11 227,-11 151,-10 99,14 71,62 43,112 37,183 55,273 c 18,96 53,167 103,211 55,49 115,74 180,75" /></g></g></g></g></g></g></svg>
